  0
SECTION
  2
HEADER
  9
$ACADVER
  1
AC1015
  9
$ACADMAINTVER
 70
     6
  9
$DWGCODEPAGE
  3
ANSI_1252
  9
$INSBASE
 10
0.0
 20
0.0
 30
0.0
  9
$EXTMIN
 10
0.0
 20
0.0
 30
0.0
  9
$EXTMAX
 10
600.0
 20
400.0
 30
0.0
  9
$LIMMIN
 10
0.0
 20
0.0
  9
$LIMMAX
 10
600.0
 20
400.0
  9
$ORTHOMODE
 70
     0
  9
$REGENMODE
 70
     1
  9
$FILLMODE
 70
     1
  9
$QTEXTMODE
 70
     0
  9
$MIRRTEXT
 70
     1
  9
$LTSCALE
 40
1.0
  9
$ATTMODE
 70
     1
  9
$TEXTSIZE
 40
3.5
  9
$TRACEWID
 40
1.0
  9
$TEXTSTYLE
  7
Standard
  9
$CLAYER
  8
0
  9
$CELTYPE
  6
ByLayer
  9
$CECOLOR
 62
   256
  9
$CELTSCALE
 40
1.0
  9
$DISPSILH
 70
     0
  9
$DIMSCALE
 40
1.0
  9
$DIMASZ
 40
3.302
  9
$DIMEXO
 40
1.0
  9
$DIMDLI
 40
3.75
  9
$DIMRND
 40
0.0
  9
$DIMDLE
 40
0.0
  9
$DIMEXE
 40
1.0
  9
$DIMTP
 40
0.0
  9
$DIMTM
 40
0.0
  9
$DIMTXT
 40
3.5
  9
$DIMCEN
 40
2.5
  9
$DIMTSZ
 40
0.0
  9
$DIMTOL
 70
     0
  9
$DIMLIM
 70
     0
  9
$DIMTIH
 70
     1
  9
$DIMTOH
 70
     1
  9
$DIMSE1
 70
     0
  9
$DIMSE2
 70
     0
  9
$DIMTAD
 70
     1
  9
$DIMZIN
 70
     0
  9
$DIMBLK
  1

  9
$DIMASO
 70
     1
  9
$DIMSHO
 70
     1
  9
$DIMPOST
  1

  9
$DIMAPOST
  1

  9
$DIMALT
 70
     0
  9
$DIMALTD
 70
     3
  9
$DIMALTF
 40
0.0393700787
  9
$DIMLFAC
 40
0.2
  9
$DIMTOFL
 70
     1
  9
$DIMTVP
 40
0.0
  9
$DIMTIX
 70
     0
  9
$DIMSOXD
 70
     0
  9
$DIMSAH
 70
     0
  9
$DIMBLK1
  1

  9
$DIMBLK2
  1

  9
$DIMSTYLE
  2
ISO-25
  9
$DIMCLRD
 70
     0
  9
$DIMCLRE
 70
     0
  9
$DIMCLRT
 70
     0
  9
$DIMTFAC
 40
1.0
  9
$DIMGAP
 40
1.524
  9
$DIMJUST
 70
     0
  9
$DIMSD1
 70
     0
  9
$DIMSD2
 70
     0
  9
$DIMTOLJ
 70
     0
  9
$DIMTZIN
 70
     0
  9
$DIMALTZ
 70
     0
  9
$DIMALTTZ
 70
     0
  9
$DIMUPT
 70
     0
  9
$DIMDEC
 70
     2
  9
$DIMTDEC
 70
     2
  9
$DIMALTU
 70
     2
  9
$DIMALTTD
 70
     3
  9
$DIMTXSTY
  7
Standard
  9
$DIMAUNIT
 70
     0
  9
$DIMADEC
 70
     2
  9
$DIMALTRND
 40
0.0
  9
$DIMAZIN
 70
     0
  9
$DIMDSEP
 70
    44
  9
$DIMATFIT
 70
     3
  9
$DIMFRAC
 70
     0
  9
$DIMLDRBLK
  1

  9
$DIMLUNIT
 70
     2
  9
$DIMLWD
 70
    -2
  9
$DIMLWE
 70
    -2
  9
$DIMTMOVE
 70
     0
  9
$LUNITS
 70
     2
  9
$LUPREC
 70
     2
  9
$SKETCHINC
 40
1.0
  9
$FILLETRAD
 40
10.0
  9
$AUNITS
 70
     0
  9
$AUPREC
 70
     2
  9
$MENU
  1
.
  9
$ELEVATION
 40
0.0
  9
$PELEVATION
 40
0.0
  9
$THICKNESS
 40
0.0
  9
$LIMCHECK
 70
     0
  9
$CHAMFERA
 40
0.0
  9
$CHAMFERB
 40
0.0
  9
$CHAMFERC
 40
0.0
  9
$CHAMFERD
 40
0.0
  9
$SKPOLY
 70
     0
  9
$TDCREATE
 40
2457438.593395625
  9
$TDUCREATE
 40
2457438.551728958
  9
$TDUPDATE
 40
2457438.593396354
  9
$TDUUPDATE
 40
2457438.551729687
  9
$TDINDWG
 40
0.0000000116
  9
$TDUSRTIMER
 40
0.0000000116
  9
$USRTIMER
 70
     1
  9
$ANGBASE
 50
0.0
  9
$ANGDIR
 70
     0
  9
$PDMODE
 70
     0
  9
$PDSIZE
 40
-1.0
  9
$PLINEWID
 40
0.0
  9
$SPLFRAME
 70
     0
  9
$SPLINETYPE
 70
     6
  9
$SPLINESEGS
 70
     8
  9
$HANDSEED
  5
2C8
  9
$SURFTAB1
 70
     6
  9
$SURFTAB2
 70
     6
  9
$SURFTYPE
 70
     6
  9
$SURFU
 70
     6
  9
$SURFV
 70
     6
  9
$UCSBASE
  2

  9
$UCSNAME
  2

  9
$UCSORG
 10
0.0
 20
0.0
 30
0.0
  9
$UCSXDIR
 10
1.0
 20
0.0
 30
0.0
  9
$UCSYDIR
 10
0.0
 20
1.0
 30
0.0
  9
$UCSORTHOREF
  2

  9
$UCSORTHOVIEW
 70
     0
  9
$UCSORGTOP
 10
0.0
 20
0.0
 30
0.0
  9
$UCSORGBOTTOM
 10
0.0
 20
0.0
 30
0.0
  9
$UCSORGLEFT
 10
0.0
 20
0.0
 30
0.0
  9
$UCSORGRIGHT
 10
0.0
 20
0.0
 30
0.0
  9
$UCSORGFRONT
 10
0.0
 20
0.0
 30
0.0
  9
$UCSORGBACK
 10
0.0
 20
0.0
 30
0.0
  9
$PUCSBASE
  2

  9
$PUCSNAME
  2

  9
$PUCSORG
 10
0.0
 20
0.0
 30
0.0
  9
$PUCSXDIR
 10
1.0
 20
0.0
 30
0.0
  9
$PUCSYDIR
 10
0.0
 20
1.0
 30
0.0
  9
$PUCSORTHOREF
  2

  9
$PUCSORTHOVIEW
 70
     0
  9
$PUCSORGTOP
 10
0.0
 20
0.0
 30
0.0
  9
$PUCSORGBOTTOM
 10
0.0
 20
0.0
 30
0.0
  9
$PUCSORGLEFT
 10
0.0
 20
0.0
 30
0.0
  9
$PUCSORGRIGHT
 10
0.0
 20
0.0
 30
0.0
  9
$PUCSORGFRONT
 10
0.0
 20
0.0
 30
0.0
  9
$PUCSORGBACK
 10
0.0
 20
0.0
 30
0.0
  9
$USERI1
 70
     0
  9
$USERI2
 70
     0
  9
$USERI3
 70
     0
  9
$USERI4
 70
     0
  9
$USERI5
 70
     0
  9
$USERR1
 40
0.0
  9
$USERR2
 40
0.0
  9
$USERR3
 40
0.0
  9
$USERR4
 40
0.0
  9
$USERR5
 40
0.0
  9
$WORLDVIEW
 70
     1
  9
$SHADEDGE
 70
     3
  9
$SHADEDIF
 70
    70
  9
$TILEMODE
 70
     1
  9
$MAXACTVP
 70
    64
  9
$PINSBASE
 10
0.0
 20
0.0
 30
0.0
  9
$PLIMCHECK
 70
     0
  9
$PEXTMIN
 10
1.0000000000E+20
 20
1.0000000000E+20
 30
1.0000000000E+20
  9
$PEXTMAX
 10
-1.0000000000E+20
 20
-1.0000000000E+20
 30
-1.0000000000E+20
  9
$PLIMMIN
 10
0.0
 20
0.0
  9
$PLIMMAX
 10
420.0
 20
297.0
  9
$UNITMODE
 70
     0
  9
$VISRETAIN
 70
     1
  9
$PLINEGEN
 70
     0
  9
$PSLTSCALE
 70
     1
  9
$TREEDEPTH
 70
  3020
  9
$CMLSTYLE
  2
Standard
  9
$CMLJUST
 70
     0
  9
$CMLSCALE
 40
20.0
  9
$PROXYGRAPHICS
 70
     1
  9
$MEASUREMENT
 70
     1
  9
$CELWEIGHT
370
    -1
  9
$ENDCAPS
280
     0
  9
$JOINSTYLE
280
     0
  9
$LWDISPLAY
290
     1
  9
$INSUNITS
 70
     4
  9
$HYPERLINKBASE
  1

  9
$STYLESHEET
  1

  9
$XEDIT
290
     1
  9
$CEPSNTYPE
380
     0
  9
$PSTYLEMODE
290
     1
  9
$FINGERPRINTGUID
  2
{BF8A69A5-0A6B-4C48-BB2B-26EAEC4A4327}
  9
$VERSIONGUID
  2
{FAEB1C32-E019-11D5-929B-00C0DF256EC4}
  9
$EXTNAMES
290
     1
  9
$PSVPSCALE
 40
0.0
  9
$OLESTARTUP
290
     0
  0
ENDSEC
  0
SECTION
  2
CLASSES
  0
CLASS
  1
ACDBDICTIONARYWDFLT
  2
AcDbDictionaryWithDefault
  3
ObjectDBX Classes
 90
        0
280
     0
281
     0
  0
CLASS
  1
VISUALSTYLE
  2
AcDbVisualStyle
  3
ObjectDBX Classes
 90
     4095
280
     0
281
     0
  0
CLASS
  1
MATERIAL
  2
AcDbMaterial
  3
ObjectDBX Classes
 90
     1153
280
     0
281
     0
  0
CLASS
  1
SCALE
  2
AcDbScale
  3
ObjectDBX Classes
 90
     1153
280
     0
281
     0
  0
CLASS
  1
SUN
  2
AcDbSun
  3
SCENEOE
 90
     1153
280
     0
281
     0
  0
CLASS
  1
ACDBPLACEHOLDER
  2
AcDbPlaceHolder
  3
ObjectDBX Classes
 90
        0
280
     0
281
     0
  0
CLASS
  1
LAYOUT
  2
AcDbLayout
  3
ObjectDBX Classes
 90
        0
280
     0
281
     0
  0
ENDSEC
  0
SECTION
  2
TABLES
  0
TABLE
  2
VPORT
  5
8
330
0
100
AcDbSymbolTable
 70
     1
  0
VPORT
  5
29
330
8
100
AcDbSymbolTableRecord
100
AcDbViewportTableRecord
  2
*Active
 70
     0
 10
0.0
 20
0.0
 11
1.0
 21
1.0
 12
300.0
 22
200.0
 13
0.0
 23
0.0
 14
10.0
 24
10.0
 15
10.0
 25
10.0
 16
0.0
 26
0.0
 36
1.0
 17
0.0
 27
0.0
 37
0.0
 40
400.0
 41
1.5
 42
50.0
 43
0.0
 44
0.0
 50
0.0
 51
0.0
 71
     0
 72
  2000
 73
     1
 74
     3
 75
     0
 76
     0
 77
     0
 78
     0
281
     0
 65
     1
110
0.0
120
0.0
130
0.0
111
1.0
121
0.0
131
0.0
112
0.0
122
1.0
132
0.0
 79
     0
146
0.0
  0
ENDTAB
  0
TABLE
  2
LTYPE
  5
5
330
0
100
AcDbSymbolTable
 70
     6
  0
LTYPE
  5
14
330
5
100
AcDbSymbolTableRecord
100
AcDbLinetypeTableRecord
  2
ByBlock
 70
     0
  3

 72
    65
 73
     0
 40
0.0
  0
LTYPE
  5
15
330
5
100
AcDbSymbolTableRecord
100
AcDbLinetypeTableRecord
  2
ByLayer
 70
     0
  3

 72
    65
 73
     0
 40
0.0
  0
LTYPE
  5
16
330
5
100
AcDbSymbolTableRecord
100
AcDbLinetypeTableRecord
  2
Continuous
 70
     0
  3
Solid line
 72
    65
 73
     0
 40
0.0
  0
LTYPE
  5
6A
330
5
100
AcDbSymbolTableRecord
100
AcDbLinetypeTableRecord
  2
HIDDEN
 70
     0
  3
Hidden __ __ __ __ __ __ __ __ __ __ __ __ __ __
 72
    65
 73
     2
 40
1.905
 49
1.27
 74
     0
 49
-0.635
 74
     0
  0
LTYPE
  5
6B
330
5
100
AcDbSymbolTableRecord
100
AcDbLinetypeTableRecord
  2
PHANTOM
 70
     0
  3
Phantom ______  __  __  ______  __  __  ______
 72
    65
 73
     6
 40
12.7
 49
6.35
 74
     0
 49
-1.27
 74
     0
 49
1.27
 74
     0
 49
-1.27
 74
     0
 49
1.27
 74
     0
 49
-1.27
 74
     0
  0
LTYPE
  5
6C
330
5
100
AcDbSymbolTableRecord
100
AcDbLinetypeTableRecord
  2
CENTER
 70
     0
  3
Center ____ _ ____ _ ____ _ ____ _ ____ _ ____
 72
    65
 73
     4
 40
10.16
 49
6.35
 74
     0
 49
-1.27
 74
     0
 49
1.27
 74
     0
 49
-1.27
 74
     0
  0
LTYPE
  5
6D
330
5
100
AcDbSymbolTableRecord
100
AcDbLinetypeTableRecord
  2
CENTERX2
 70
     0
  3
Center (2x) ________  __  ________  __  _____
 72
    65
 73
     4
 40
20.32
 49
12.7
 74
     0
 49
-2.54
 74
     0
 49
2.54
 74
     0
 49
-2.54
 74
     0
  0
LTYPE
  5
6E
330
5
100
AcDbSymbolTableRecord
100
AcDbLinetypeTableRecord
  2
DOT2
 70
     0
  3
Dot (.5x) ........................................
 72
    65
 73
     2
 40
0.635
 49
0.0
 74
     0
 49
-0.635
 74
     0
  0
ENDTAB
  0
TABLE
  2
LAYER
  5
2
330
0
100
AcDbSymbolTable
 70
     1
  0
LAYER
  5
10
330
2
100
AcDbSymbolTableRecord
100
AcDbLayerTableRecord
  2
0
 70
     0
 62
     7
  6
Continuous
370
    -3
390
F
  0
ENDTAB
  0
TABLE
  2
STYLE
  5
3
330
0
100
AcDbSymbolTable
 70
     1
  0
STYLE
  5
11
330
3
100
AcDbSymbolTableRecord
100
AcDbTextStyleTableRecord
  2
Standard
 70
     0
 40
0.0
 41
1.0
 50
0.0
 71
     0
 42
3.5
  3
txt
  4

  0
ENDTAB
  0
TABLE
  2
VIEW
  5
6
330
0
100
AcDbSymbolTable
 70
     0
  0
ENDTAB
  0
TABLE
  2
UCS
  5
7
330
0
100
AcDbSymbolTable
 70
     0
  0
ENDTAB
  0
TABLE
  2
APPID
  5
9
330
0
100
AcDbSymbolTable
 70
     1
  0
APPID
  5
12
330
9
100
AcDbSymbolTableRecord
100
AcDbRegAppTableRecord
  2
ACAD
 70
     0
  0
ENDTAB
  0
TABLE
  2
DIMSTYLE
  5
A
330
0
100
AcDbSymbolTable
 70
     1
100
AcDbDimStyleTable
  0
DIMSTYLE
105
27
330
A
100
AcDbSymbolTableRecord
100
AcDbDimStyleTableRecord
  2
ISO-25
 70
     0
 41
2.5
 42
0.625
 43
3.75
 44
1.25
 73
     0
 74
     0
 77
     1
 78
     8
140
2.5
141
2.5
143
0.0393700787
147
0.625
171
     3
172
     1
178
     0
271
     2
272
     2
274
     3
278
    44
283
     0
284
     8
340
11
  0
ENDTAB
  0
TABLE
  2
BLOCK_RECORD
  5
1
330
0
100
AcDbSymbolTable
 70
     1
  0
BLOCK_RECORD
  5
1F
330
1
100
AcDbSymbolTableRecord
100
AcDbBlockTableRecord
  2
*Model_Space
340
22
  0
BLOCK_RECORD
  5
1B
330
1
100
AcDbSymbolTableRecord
100
AcDbBlockTableRecord
  2
*Paper_Space
340
1E
  0
BLOCK_RECORD
  5
23
330
1
100
AcDbSymbolTableRecord
100
AcDbBlockTableRecord
  2
*Paper_Space0
340
26
  0
ENDTAB
  0
ENDSEC
  0
SECTION
  2
BLOCKS
  0
BLOCK
  5
20
330
1F
100
AcDbEntity
  8
0
100
AcDbBlockBegin
  2
*Model_Space
 70
     0
 10
0.0
 20
0.0
 30
0.0
  3
*Model_Space
  1
*Model_Space
  0
ENDBLK
  5
21
330
1F
100
AcDbEntity
  8
0
100
AcDbBlockEnd
  0
BLOCK
  5
1C
330
1B
100
AcDbEntity
 67
     1
  8
0
100
AcDbBlockBegin
  2
*Paper_Space
 70
     0
 10
0.0
 20
0.0
 30
0.0
  3
*Paper_Space
  1
*Paper_Space
  0
ENDBLK
  5
1D
330
1B
100
AcDbEntity
 67
     1
  8
0
100
AcDbBlockEnd
  0
BLOCK
  5
24
330
23
100
AcDbEntity
  8
0
100
AcDbBlockBegin
  2
*Paper_Space0
 70
     0
 10
0.0
 20
0.0
 30
0.0
  3
*Paper_Space0
  1
*Paper_Space0
  0
ENDBLK
  5
25
330
23
100
AcDbEntity
  8
0
100
AcDbBlockEnd
  0
ENDSEC
  0
SECTION
  2
ENTITIES
  0
LINE
  5
6F
330
1F
100
AcDbEntity
  8
0
  6
Continuous
 62
     7
370
    15
100
AcDbLine
 10
509.055577247
 20
95.8376106527
 30
0.0
 11
514.0555773099
 21
95.8376106527
 31
0.0
  0
LINE
  5
70
330
1F
100
AcDbEntity
  8
0
  6
Continuous
 62
     7
370
    15
100
AcDbLine
 10
514.0555773099
 20
95.8376106527
 30
0.0
 11
514.0555773099
 21
100.8376096096
 31
0.0
  0
LINE
  5
71
330
1F
100
AcDbEntity
  8
0
  6
Continuous
 62
     7
370
    15
100
AcDbLine
 10
514.0555773099
 20
100.8376096096
 30
0.0
 11
509.055577247
 21
100.8376096096
 31
0.0
  0
LINE
  5
72
330
1F
100
AcDbEntity
  8
0
  6
Continuous
 62
     7
370
    15
100
AcDbLine
 10
509.055577247
 20
105.8376085666
 30
0.0
 11
514.0555773099
 21
105.8376085666
 31
0.0
  0
LINE
  5
73
330
1F
100
AcDbEntity
  8
0
  6
Continuous
 62
     7
370
    15
100
AcDbLine
 10
514.0555773099
 20
105.8376085666
 30
0.0
 11
514.0555773099
 21
110.8376112488
 31
0.0
  0
LINE
  5
74
330
1F
100
AcDbEntity
  8
0
  6
Continuous
 62
     7
370
    15
100
AcDbLine
 10
519.0555774892
 20
110.8376112488
 30
0.0
 11
519.0555774892
 21
105.8376085666
 31
0.0
  0
LINE
  5
75
330
1F
100
AcDbEntity
  8
0
  6
Continuous
 62
     7
370
    15
100
AcDbLine
 10
519.0555774892
 20
105.8376085666
 30
0.0
 11
524.0555773774
 21
105.8376085666
 31
0.0
  0
LINE
  5
76
330
1F
100
AcDbEntity
  8
0
  6
Continuous
 62
     7
370
    15
100
AcDbLine
 10
524.0555773774
 20
105.8376085666
 30
0.0
 11
524.0555773774
 21
110.8376112488
 31
0.0
  0
LINE
  5
77
330
1F
100
AcDbEntity
  8
0
  6
Continuous
 62
     7
370
    15
100
AcDbLine
 10
529.0555772657
 20
105.8376085666
 30
0.0
 11
514.0555773099
 21
90.8376098332
 31
0.0
  0
LINE
  5
78
330
1F
100
AcDbEntity
  8
0
  6
Continuous
 62
     7
370
    15
100
AcDbLine
 10
529.0555772657
 20
105.8376085666
 30
0.0
 11
529.0555772657
 21
110.8376112488
 31
0.0
  0
LINE
  5
79
330
1F
100
AcDbEntity
  8
0
  6
Continuous
 62
     7
370
    15
100
AcDbLine
 10
509.055577247
 20
90.8376098332
 30
0.0
 11
514.0555773099
 21
90.8376098332
 31
0.0
  0
LINE
  5
7A
330
1F
100
AcDbEntity
  8
0
  6
Continuous
 62
     7
370
    15
100
AcDbLine
 10
509.055577247
 20
95.8376106527
 30
0.0
 11
509.055577247
 21
90.8376098332
 31
0.0
  0
LINE
  5
7B
330
1F
100
AcDbEntity
  8
0
  6
Continuous
 62
     7
370
    15
100
AcDbLine
 10
519.0555774892
 20
110.8376112488
 30
0.0
 11
514.0555773099
 21
110.8376112488
 31
0.0
  0
LINE
  5
7C
330
1F
100
AcDbEntity
  8
0
  6
Continuous
 62
     7
370
    15
100
AcDbLine
 10
529.0555772657
 20
110.8376112488
 30
0.0
 11
524.0555773774
 21
110.8376112488
 31
0.0
  0
LINE
  5
7D
330
1F
100
AcDbEntity
  8
0
  6
Continuous
 62
     7
370
    15
100
AcDbLine
 10
509.055577247
 20
105.8376085666
 30
0.0
 11
509.055577247
 21
100.8376096096
 31
0.0
  0
LINE
  5
7E
330
1F
100
AcDbEntity
  8
0
  6
Continuous
 62
     7
370
    15
100
AcDbLine
 10
523.2060131114
 20
116.9695180366
 30
0.0
 11
523.2060131114
 21
121.9695180995
 31
0.0
  0
LINE
  5
7F
330
1F
100
AcDbEntity
  8
0
  6
Continuous
 62
     7
370
    15
100
AcDbLine
 10
523.2060131114
 20
121.9695180995
 30
0.0
 11
518.2060141545
 21
121.9695180995
 31
0.0
  0
LINE
  5
80
330
1F
100
AcDbEntity
  8
0
  6
Continuous
 62
     7
370
    15
100
AcDbLine
 10
518.2060141545
 20
121.9695180995
 30
0.0
 11
518.2060141545
 21
116.9695180366
 31
0.0
  0
LINE
  5
81
330
1F
100
AcDbEntity
  8
0
  6
Continuous
 62
     7
370
    15
100
AcDbLine
 10
513.2060151976
 20
116.9695180366
 30
0.0
 11
513.2060151976
 21
121.9695180995
 31
0.0
  0
LINE
  5
82
330
1F
100
AcDbEntity
  8
0
  6
Continuous
 62
     7
370
    15
100
AcDbLine
 10
513.2060151976
 20
121.9695180995
 30
0.0
 11
508.2060125153
 21
121.9695180995
 31
0.0
  0
LINE
  5
83
330
1F
100
AcDbEntity
  8
0
  6
Continuous
 62
     7
370
    15
100
AcDbLine
 10
508.2060125153
 20
126.9695182788
 30
0.0
 11
513.2060151976
 21
126.9695182788
 31
0.0
  0
LINE
  5
84
330
1F
100
AcDbEntity
  8
0
  6
Continuous
 62
     7
370
    15
100
AcDbLine
 10
513.2060151976
 20
126.9695182788
 30
0.0
 11
513.2060151976
 21
131.969518167
 31
0.0
  0
LINE
  5
85
330
1F
100
AcDbEntity
  8
0
  6
Continuous
 62
     7
370
    15
100
AcDbLine
 10
513.2060151976
 20
131.969518167
 30
0.0
 11
508.2060125153
 21
131.969518167
 31
0.0
  0
LINE
  5
86
330
1F
100
AcDbEntity
  8
0
  6
Continuous
 62
     7
370
    15
100
AcDbLine
 10
513.2060151976
 20
136.9695180552
 30
0.0
 11
528.206013931
 21
121.9695180995
 31
0.0
  0
LINE
  5
87
330
1F
100
AcDbEntity
  8
0
  6
Continuous
 62
     7
370
    15
100
AcDbLine
 10
513.2060151976
 20
136.9695180552
 30
0.0
 11
508.2060125153
 21
136.9695180552
 31
0.0
  0
LINE
  5
88
330
1F
100
AcDbEntity
  8
0
  6
Continuous
 62
     7
370
    15
100
AcDbLine
 10
528.206013931
 20
116.9695180366
 30
0.0
 11
528.206013931
 21
121.9695180995
 31
0.0
  0
LINE
  5
89
330
1F
100
AcDbEntity
  8
0
  6
Continuous
 62
     7
370
    15
100
AcDbLine
 10
523.2060131114
 20
116.9695180366
 30
0.0
 11
528.206013931
 21
116.9695180366
 31
0.0
  0
LINE
  5
8A
330
1F
100
AcDbEntity
  8
0
  6
Continuous
 62
     7
370
    15
100
AcDbLine
 10
508.2060125153
 20
126.9695182788
 30
0.0
 11
508.2060125153
 21
121.9695180995
 31
0.0
  0
LINE
  5
8B
330
1F
100
AcDbEntity
  8
0
  6
Continuous
 62
     7
370
    15
100
AcDbLine
 10
508.2060125153
 20
136.9695180552
 30
0.0
 11
508.2060125153
 21
131.969518167
 31
0.0
  0
LINE
  5
8C
330
1F
100
AcDbEntity
  8
0
  6
Continuous
 62
     7
370
    15
100
AcDbLine
 10
513.2060151976
 20
116.9695180366
 30
0.0
 11
518.2060141545
 21
116.9695180366
 31
0.0
  0
LINE
  5
8D
330
1F
100
AcDbEntity
  8
0
  6
Continuous
 62
     7
370
    15
100
AcDbLine
 10
277.9026503562
 20
35.4889559948
 30
0.0
 11
288.4026502146
 21
35.4889559948
 31
0.0
  0
LINE
  5
8E
330
1F
100
AcDbEntity
  8
0
  6
Continuous
 62
     7
370
    15
100
AcDbLine
 10
277.9026503562
 20
35.4889559948
 30
0.0
 11
277.9026503562
 21
45.4889557713
 31
0.0
  0
LINE
  5
8F
330
1F
100
AcDbEntity
  8
0
  6
Continuous
 62
     7
370
    15
100
AcDbLine
 10
277.9026503562
 20
45.4889557713
 30
0.0
 11
288.4026502146
 21
45.4889557713
 31
0.0
  0
LINE
  5
90
330
1F
100
AcDbEntity
  8
0
  6
Continuous
 62
     7
370
    15
100
AcDbLine
 10
309.6290488614
 20
23.4889558905
 30
0.0
 11
288.4026502146
 21
49.6889560872
 31
0.0
  0
LINE
  5
91
330
1F
100
AcDbEntity
  8
0
  6
Continuous
 62
     7
370
    15
100
AcDbLine
 10
309.6290488614
 20
13.488956114
 30
0.0
 11
309.6290488614
 21
23.4889558905
 31
0.0
  0
LINE
  5
92
330
1F
100
AcDbEntity
  8
0
  6
Continuous
 62
     7
370
    15
100
AcDbLine
 10
309.6290488614
 20
13.488956114
 30
0.0
 11
304.6290480419
 21
13.488956114
 31
0.0
  0
LINE
  5
93
330
1F
100
AcDbEntity
  8
0
  6
Continuous
 62
     7
370
    15
100
AcDbLine
 10
280.4026498346
 20
37.9889554732
 30
0.0
 11
280.4026498346
 21
42.9889562928
 31
0.0
  0
LINE
  5
94
330
1F
100
AcDbEntity
  8
0
  6
Continuous
 62
     7
370
    15
100
AcDbLine
 10
285.4026501885
 20
37.9889554732
 30
0.0
 11
280.4026498346
 21
37.9889554732
 31
0.0
  0
LINE
  5
95
330
1F
100
AcDbEntity
  8
0
  6
Continuous
 62
     7
370
    15
100
AcDbLine
 10
285.4026501885
 20
42.9889562928
 30
0.0
 11
285.4026501885
 21
37.9889554732
 31
0.0
  0
LINE
  5
96
330
1F
100
AcDbEntity
  8
0
  6
Continuous
 62
     7
370
    15
100
AcDbLine
 10
280.4026498346
 20
42.9889562928
 30
0.0
 11
285.4026501885
 21
42.9889562928
 31
0.0
  0
LINE
  5
97
330
1F
100
AcDbEntity
  8
0
  6
Continuous
 62
     7
370
    15
100
AcDbLine
 10
304.6290480419
 20
13.488956114
 30
0.0
 11
304.6290480419
 21
23.4889558905
 31
0.0
  0
LINE
  5
98
330
1F
100
AcDbEntity
  8
0
  6
Continuous
 62
     7
370
    15
100
AcDbLine
 10
288.4026502146
 20
23.4889558905
 30
0.0
 11
304.6290480419
 21
23.4889558905
 31
0.0
  0
LINE
  5
99
330
1F
100
AcDbEntity
  8
0
  6
Continuous
 62
     7
370
    15
100
AcDbLine
 10
288.4026502146
 20
35.4889559948
 30
0.0
 11
288.4026502146
 21
23.4889558905
 31
0.0
  0
LINE
  5
9A
330
1F
100
AcDbEntity
  8
0
  6
Continuous
 62
     7
370
    15
100
AcDbLine
 10
288.4026502146
 20
49.6889560872
 30
0.0
 11
288.4026502146
 21
45.4889557713
 31
0.0
  0
LINE
  5
9B
330
1F
100
AcDbEntity
  8
0
  6
Continuous
 62
     7
370
    15
100
AcDbLine
 10
242.5900561342
 20
96.0475573447
 30
0.0
 11
253.0900559927
 21
96.0475573447
 31
0.0
  0
LINE
  5
9C
330
1F
100
AcDbEntity
  8
0
  6
Continuous
 62
     7
370
    15
100
AcDbLine
 10
242.5900561342
 20
96.0475573447
 30
0.0
 11
242.5900561342
 21
106.0475571212
 31
0.0
  0
LINE
  5
9D
330
1F
100
AcDbEntity
  8
0
  6
Continuous
 62
     7
370
    15
100
AcDbLine
 10
242.5900561342
 20
106.0475571212
 30
0.0
 11
253.0900559927
 21
106.0475571212
 31
0.0
  0
LINE
  5
9E
330
1F
100
AcDbEntity
  8
0
  6
Continuous
 62
     7
370
    15
100
AcDbLine
 10
274.3164546395
 20
84.0475572404
 30
0.0
 11
253.0900559927
 21
110.2475574371
 31
0.0
  0
LINE
  5
9F
330
1F
100
AcDbEntity
  8
0
  6
Continuous
 62
     7
370
    15
100
AcDbLine
 10
274.3164546395
 20
74.0475574639
 30
0.0
 11
274.3164546395
 21
84.0475572404
 31
0.0
  0
LINE
  5
A0
330
1F
100
AcDbEntity
  8
0
  6
Continuous
 62
     7
370
    15
100
AcDbLine
 10
274.3164546395
 20
74.0475574639
 30
0.0
 11
269.31645382
 21
74.0475574639
 31
0.0
  0
LINE
  5
A1
330
1F
100
AcDbEntity
  8
0
  6
Continuous
 62
     7
370
    15
100
AcDbLine
 10
245.0900556127
 20
98.5475568231
 30
0.0
 11
245.0900556127
 21
103.5475576427
 31
0.0
  0
LINE
  5
A2
330
1F
100
AcDbEntity
  8
0
  6
Continuous
 62
     7
370
    15
100
AcDbLine
 10
250.0900559666
 20
98.5475568231
 30
0.0
 11
245.0900556127
 21
98.5475568231
 31
0.0
  0
LINE
  5
A3
330
1F
100
AcDbEntity
  8
0
  6
Continuous
 62
     7
370
    15
100
AcDbLine
 10
250.0900559666
 20
103.5475576427
 30
0.0
 11
250.0900559666
 21
98.5475568231
 31
0.0
  0
LINE
  5
A4
330
1F
100
AcDbEntity
  8
0
  6
Continuous
 62
     7
370
    15
100
AcDbLine
 10
245.0900556127
 20
103.5475576427
 30
0.0
 11
250.0900559666
 21
103.5475576427
 31
0.0
  0
LINE
  5
A5
330
1F
100
AcDbEntity
  8
0
  6
Continuous
 62
     7
370
    15
100
AcDbLine
 10
269.31645382
 20
74.0475574639
 30
0.0
 11
269.31645382
 21
84.0475572404
 31
0.0
  0
LINE
  5
A6
330
1F
100
AcDbEntity
  8
0
  6
Continuous
 62
     7
370
    15
100
AcDbLine
 10
253.0900559927
 20
84.0475572404
 30
0.0
 11
269.31645382
 21
84.0475572404
 31
0.0
  0
LINE
  5
A7
330
1F
100
AcDbEntity
  8
0
  6
Continuous
 62
     7
370
    15
100
AcDbLine
 10
253.0900559927
 20
96.0475573447
 30
0.0
 11
253.0900559927
 21
84.0475572404
 31
0.0
  0
LINE
  5
A8
330
1F
100
AcDbEntity
  8
0
  6
Continuous
 62
     7
370
    15
100
AcDbLine
 10
253.0900559927
 20
110.2475574371
 30
0.0
 11
253.0900559927
 21
106.0475571212
 31
0.0
  0
LINE
  5
A9
330
1F
100
AcDbEntity
  8
0
  6
Continuous
 62
     7
370
    15
100
AcDbLine
 10
256.2459364535
 20
63.0257953004
 30
0.0
 11
68.2459317149
 21
63.0257953004
 31
0.0
  0
LINE
  5
AA
330
1F
100
AcDbEntity
  8
0
  6
Continuous
 62
     7
370
    15
100
AcDbLine
 10
256.2459364535
 20
63.0257953004
 30
0.0
 11
256.2459364535
 21
58.0257952957
 31
0.0
  0
LINE
  5
AB
330
1F
100
AcDbEntity
  8
0
  6
Continuous
 62
     7
370
    15
100
AcDbLine
 10
256.2459364535
 20
58.0257952957
 30
0.0
 11
261.2459316851
 21
58.0257952957
 31
0.0
  0
LINE
  5
AC
330
1F
100
AcDbEntity
  8
0
  6
Continuous
 62
     7
370
    15
100
AcDbLine
 10
261.2459316851
 20
58.0257952957
 30
0.0
 11
261.2459316851
 21
63.0257953004
 31
0.0
  0
LINE
  5
AD
330
1F
100
AcDbEntity
  8
0
  6
Continuous
 62
     7
370
    15
100
AcDbLine
 10
266.2459269168
 20
63.0257953004
 30
0.0
 11
261.2459316851
 21
63.0257953004
 31
0.0
  0
LINE
  5
AE
330
1F
100
AcDbEntity
  8
0
  6
Continuous
 62
     7
370
    15
100
AcDbLine
 10
266.2459269168
 20
63.0257953004
 30
0.0
 11
266.2459269168
 21
58.0257952957
 31
0.0
  0
LINE
  5
AF
330
1F
100
AcDbEntity
  8
0
  6
Continuous
 62
     7
370
    15
100
AcDbLine
 10
266.2459269168
 20
58.0257952957
 30
0.0
 11
271.2459370495
 21
58.0257952957
 31
0.0
  0
LINE
  5
B0
330
1F
100
AcDbEntity
  8
0
  6
Continuous
 62
     7
370
    15
100
AcDbLine
 10
271.2459370495
 20
58.0257952957
 30
0.0
 11
271.2459370495
 21
63.0257953004
 31
0.0
  0
LINE
  5
B1
330
1F
100
AcDbEntity
  8
0
  6
Continuous
 62
     7
370
    15
100
AcDbLine
 10
276.2459322812
 20
63.0257953004
 30
0.0
 11
271.2459370495
 21
63.0257953004
 31
0.0
  0
LINE
  5
B2
330
1F
100
AcDbEntity
  8
0
  6
Continuous
 62
     7
370
    15
100
AcDbLine
 10
276.2459322812
 20
53.0257950582
 30
0.0
 11
276.2459322812
 21
63.0257953004
 31
0.0
  0
LINE
  5
B3
330
1F
100
AcDbEntity
  8
0
  6
Continuous
 62
     7
370
    15
100
AcDbLine
 10
276.2459322812
 20
53.0257950582
 30
0.0
 11
271.2459370495
 21
53.0257950582
 31
0.0
  0
LINE
  5
B4
330
1F
100
AcDbEntity
  8
0
  6
Continuous
 62
     7
370
    15
100
AcDbLine
 10
271.2459370495
 20
53.0257950582
 30
0.0
 11
271.2459370495
 21
48.02579517
 31
0.0
  0
LINE
  5
B5
330
1F
100
AcDbEntity
  8
0
  6
Continuous
 62
     7
370
    15
100
AcDbLine
 10
271.2459370495
 20
48.02579517
 30
0.0
 11
276.2459322812
 21
48.02579517
 31
0.0
  0
LINE
  5
B6
330
1F
100
AcDbEntity
  8
0
  6
Continuous
 62
     7
370
    15
100
AcDbLine
 10
276.2459322812
 20
43.0257952817
 30
0.0
 11
276.2459322812
 21
48.02579517
 31
0.0
  0
LINE
  5
B7
330
1F
100
AcDbEntity
  8
0
  6
Continuous
 62
     7
370
    15
100
AcDbLine
 10
276.2459322812
 20
43.0257952817
 30
0.0
 11
271.2459370495
 21
43.0257952817
 31
0.0
  0
LINE
  5
B8
330
1F
100
AcDbEntity
  8
0
  6
Continuous
 62
     7
370
    15
100
AcDbLine
 10
271.2459370495
 20
43.0257952817
 30
0.0
 11
271.2459370495
 21
33.0257955053
 31
0.0
  0
LINE
  5
B9
330
1F
100
AcDbEntity
  8
0
  6
Continuous
 62
     7
370
    15
100
AcDbLine
 10
276.2459322812
 20
33.0257955053
 30
0.0
 11
271.2459370495
 21
33.0257955053
 31
0.0
  0
LINE
  5
BA
330
1F
100
AcDbEntity
  8
0
  6
Continuous
 62
     7
370
    15
100
AcDbLine
 10
276.2459322812
 20
33.0257955053
 30
0.0
 11
276.2459322812
 21
28.0257946857
 31
0.0
  0
LINE
  5
BB
330
1F
100
AcDbEntity
  8
0
  6
Continuous
 62
     7
370
    15
100
AcDbLine
 10
271.2459370495
 20
28.0257946857
 30
0.0
 11
276.2459322812
 21
28.0257946857
 31
0.0
  0
LINE
  5
BC
330
1F
100
AcDbEntity
  8
0
  6
Continuous
 62
     7
370
    15
100
AcDbLine
 10
271.2459370495
 20
23.0257957288
 30
0.0
 11
271.2459370495
 21
28.0257946857
 31
0.0
  0
LINE
  5
BD
330
1F
100
AcDbEntity
  8
0
  6
Continuous
 62
     7
370
    15
100
AcDbLine
 10
276.2459322812
 20
23.0257957288
 30
0.0
 11
271.2459370495
 21
23.0257957288
 31
0.0
  0
LINE
  5
BE
330
1F
100
AcDbEntity
  8
0
  6
Continuous
 62
     7
370
    15
100
AcDbLine
 10
276.2459322812
 20
23.0257957288
 30
0.0
 11
276.2459322812
 21
13.0257940896
 31
0.0
  0
LINE
  5
BF
330
1F
100
AcDbEntity
  8
0
  6
Continuous
 62
     7
370
    15
100
AcDbLine
 10
276.2459322812
 20
13.0257940896
 30
0.0
 11
271.2459370495
 21
13.0257940896
 31
0.0
  0
LINE
  5
C0
330
1F
100
AcDbEntity
  8
0
  6
Continuous
 62
     7
370
    15
100
AcDbLine
 10
271.2459370495
 20
18.0257967719
 30
0.0
 11
271.2459370495
 21
13.0257940896
 31
0.0
  0
LINE
  5
C1
330
1F
100
AcDbEntity
  8
0
  6
Continuous
 62
     7
370
    15
100
AcDbLine
 10
266.2459269168
 20
18.0257967719
 30
0.0
 11
271.2459370495
 21
18.0257967719
 31
0.0
  0
LINE
  5
C2
330
1F
100
AcDbEntity
  8
0
  6
Continuous
 62
     7
370
    15
100
AcDbLine
 10
266.2459269168
 20
13.0257940896
 30
0.0
 11
266.2459269168
 21
18.0257967719
 31
0.0
  0
LINE
  5
C3
330
1F
100
AcDbEntity
  8
0
  6
Continuous
 62
     7
370
    15
100
AcDbLine
 10
266.2459269168
 20
13.0257940896
 30
0.0
 11
261.2459316851
 21
13.0257940896
 31
0.0
  0
LINE
  5
C4
330
1F
100
AcDbEntity
  8
0
  6
Continuous
 62
     7
370
    15
100
AcDbLine
 10
261.2459316851
 20
18.0257967719
 30
0.0
 11
261.2459316851
 21
13.0257940896
 31
0.0
  0
LINE
  5
C5
330
1F
100
AcDbEntity
  8
0
  6
Continuous
 62
     7
370
    15
100
AcDbLine
 10
256.2459364535
 20
18.0257967719
 30
0.0
 11
261.2459316851
 21
18.0257967719
 31
0.0
  0
LINE
  5
C6
330
1F
100
AcDbEntity
  8
0
  6
Continuous
 62
     7
370
    15
100
AcDbLine
 10
256.2459364535
 20
13.0257940896
 30
0.0
 11
256.2459364535
 21
18.0257967719
 31
0.0
  0
LINE
  5
C7
330
1F
100
AcDbEntity
  8
0
  6
Continuous
 62
     7
370
    15
100
AcDbLine
 10
256.2459364535
 20
13.0257940896
 30
0.0
 11
68.2459317149
 21
13.0257940896
 31
0.0
  0
LINE
  5
C8
330
1F
100
AcDbEntity
  8
0
  6
Continuous
 62
     7
370
    15
100
AcDbLine
 10
68.2459317149
 20
18.0257967719
 30
0.0
 11
68.2459317149
 21
13.0257940896
 31
0.0
  0
LINE
  5
C9
330
1F
100
AcDbEntity
  8
0
  6
Continuous
 62
     7
370
    15
100
AcDbLine
 10
63.245932758
 20
18.0257967719
 30
0.0
 11
68.2459317149
 21
18.0257967719
 31
0.0
  0
LINE
  5
CA
330
1F
100
AcDbEntity
  8
0
  6
Continuous
 62
     7
370
    15
100
AcDbLine
 10
63.245932758
 20
13.0257940896
 30
0.0
 11
63.245932758
 21
18.0257967719
 31
0.0
  0
LINE
  5
CB
330
1F
100
AcDbEntity
  8
0
  6
Continuous
 62
     7
370
    15
100
AcDbLine
 10
63.245932758
 20
13.0257940896
 30
0.0
 11
58.2459338011
 21
13.0257940896
 31
0.0
  0
LINE
  5
CC
330
1F
100
AcDbEntity
  8
0
  6
Continuous
 62
     7
370
    15
100
AcDbLine
 10
58.2459338011
 20
18.0257967719
 30
0.0
 11
58.2459338011
 21
13.0257940896
 31
0.0
  0
LINE
  5
CD
330
1F
100
AcDbEntity
  8
0
  6
Continuous
 62
     7
370
    15
100
AcDbLine
 10
53.2459311189
 20
18.0257967719
 30
0.0
 11
58.2459338011
 21
18.0257967719
 31
0.0
  0
LINE
  5
CE
330
1F
100
AcDbEntity
  8
0
  6
Continuous
 62
     7
370
    15
100
AcDbLine
 10
53.2459311189
 20
13.0257940896
 30
0.0
 11
53.2459311189
 21
18.0257967719
 31
0.0
  0
LINE
  5
CF
330
1F
100
AcDbEntity
  8
0
  6
Continuous
 62
     7
370
    15
100
AcDbLine
 10
53.2459311189
 20
13.0257940896
 30
0.0
 11
41.2459328772
 21
13.0257940896
 31
0.0
  0
LINE
  5
D0
330
1F
100
AcDbEntity
  8
0
  6
Continuous
 62
     7
370
    15
100
AcDbLine
 10
41.2459328772
 20
18.0257967719
 30
0.0
 11
41.2459328772
 21
13.0257940896
 31
0.0
  0
LINE
  5
D1
330
1F
100
AcDbEntity
  8
0
  6
Continuous
 62
     7
370
    15
100
AcDbLine
 10
36.245930195
 20
18.0257967719
 30
0.0
 11
41.2459328772
 21
18.0257967719
 31
0.0
  0
LINE
  5
D2
330
1F
100
AcDbEntity
  8
0
  6
Continuous
 62
     7
370
    15
100
AcDbLine
 10
36.245930195
 20
13.0257940896
 30
0.0
 11
36.245930195
 21
18.0257967719
 31
0.0
  0
LINE
  5
D3
330
1F
100
AcDbEntity
  8
0
  6
Continuous
 62
     7
370
    15
100
AcDbLine
 10
36.245930195
 20
13.0257940896
 30
0.0
 11
31.2459312381
 21
13.0257940896
 31
0.0
  0
LINE
  5
D4
330
1F
100
AcDbEntity
  8
0
  6
Continuous
 62
     7
370
    15
100
AcDbLine
 10
31.2459312381
 20
18.0257967719
 30
0.0
 11
31.2459312381
 21
13.0257940896
 31
0.0
  0
LINE
  5
D5
330
1F
100
AcDbEntity
  8
0
  6
Continuous
 62
     7
370
    15
100
AcDbLine
 10
26.2459322812
 20
18.0257967719
 30
0.0
 11
31.2459312381
 21
18.0257967719
 31
0.0
  0
LINE
  5
D6
330
1F
100
AcDbEntity
  8
0
  6
Continuous
 62
     7
370
    15
100
AcDbLine
 10
26.2459322812
 20
58.0257952957
 30
0.0
 11
26.2459322812
 21
18.0257967719
 31
0.0
  0
LINE
  5
D7
330
1F
100
AcDbEntity
  8
0
  6
Continuous
 62
     7
370
    15
100
AcDbLine
 10
26.2459322812
 20
58.0257952957
 30
0.0
 11
31.2459312381
 21
58.0257952957
 31
0.0
  0
LINE
  5
D8
330
1F
100
AcDbEntity
  8
0
  6
Continuous
 62
     7
370
    15
100
AcDbLine
 10
31.2459312381
 20
58.0257952957
 30
0.0
 11
31.2459312381
 21
63.0257953004
 31
0.0
  0
LINE
  5
D9
330
1F
100
AcDbEntity
  8
0
  6
Continuous
 62
     7
370
    15
100
AcDbLine
 10
36.245930195
 20
63.0257953004
 30
0.0
 11
31.2459312381
 21
63.0257953004
 31
0.0
  0
LINE
  5
DA
330
1F
100
AcDbEntity
  8
0
  6
Continuous
 62
     7
370
    15
100
AcDbLine
 10
36.245930195
 20
63.0257953004
 30
0.0
 11
36.245930195
 21
58.0257952957
 31
0.0
  0
LINE
  5
DB
330
1F
100
AcDbEntity
  8
0
  6
Continuous
 62
     7
370
    15
100
AcDbLine
 10
36.245930195
 20
58.0257952957
 30
0.0
 11
41.2459328772
 21
58.0257952957
 31
0.0
  0
LINE
  5
DC
330
1F
100
AcDbEntity
  8
0
  6
Continuous
 62
     7
370
    15
100
AcDbLine
 10
41.2459328772
 20
58.0257952957
 30
0.0
 11
41.2459328772
 21
63.0257953004
 31
0.0
  0
LINE
  5
DD
330
1F
100
AcDbEntity
  8
0
  6
Continuous
 62
     7
370
    15
100
AcDbLine
 10
53.2459311189
 20
63.0257953004
 30
0.0
 11
41.2459328772
 21
63.0257953004
 31
0.0
  0
LINE
  5
DE
330
1F
100
AcDbEntity
  8
0
  6
Continuous
 62
     7
370
    15
100
AcDbLine
 10
53.2459311189
 20
63.0257953004
 30
0.0
 11
53.2459311189
 21
58.0257952957
 31
0.0
  0
LINE
  5
DF
330
1F
100
AcDbEntity
  8
0
  6
Continuous
 62
     7
370
    15
100
AcDbLine
 10
53.2459311189
 20
58.0257952957
 30
0.0
 11
58.2459338011
 21
58.0257952957
 31
0.0
  0
LINE
  5
E0
330
1F
100
AcDbEntity
  8
0
  6
Continuous
 62
     7
370
    15
100
AcDbLine
 10
58.2459338011
 20
58.0257952957
 30
0.0
 11
58.2459338011
 21
63.0257953004
 31
0.0
  0
LINE
  5
E1
330
1F
100
AcDbEntity
  8
0
  6
Continuous
 62
     7
370
    15
100
AcDbLine
 10
63.245932758
 20
63.0257953004
 30
0.0
 11
58.2459338011
 21
63.0257953004
 31
0.0
  0
LINE
  5
E2
330
1F
100
AcDbEntity
  8
0
  6
Continuous
 62
     7
370
    15
100
AcDbLine
 10
63.245932758
 20
63.0257953004
 30
0.0
 11
63.245932758
 21
53.0257950582
 31
0.0
  0
LINE
  5
E3
330
1F
100
AcDbEntity
  8
0
  6
Continuous
 62
     7
370
    15
100
AcDbLine
 10
68.2459317149
 20
53.0257950582
 30
0.0
 11
63.245932758
 21
53.0257950582
 31
0.0
  0
LINE
  5
E4
330
1F
100
AcDbEntity
  8
0
  6
Continuous
 62
     7
370
    15
100
AcDbLine
 10
68.2459317149
 20
53.0257950582
 30
0.0
 11
68.2459317149
 21
63.0257953004
 31
0.0
  0
LINE
  5
E5
330
1F
100
AcDbEntity
  8
0
  6
Continuous
 62
     7
370
    15
100
AcDbLine
 10
63.245932758
 20
25.5257970699
 30
0.0
 11
68.2459317149
 21
25.5257970699
 31
0.0
  0
LINE
  5
E6
330
1F
100
AcDbEntity
  8
0
  6
Continuous
 62
     7
370
    15
100
AcDbLine
 10
68.2459317149
 20
30.5257960268
 30
0.0
 11
68.2459317149
 21
25.5257970699
 31
0.0
  0
LINE
  5
E7
330
1F
100
AcDbEntity
  8
0
  6
Continuous
 62
     7
370
    15
100
AcDbLine
 10
63.245932758
 20
30.5257960268
 30
0.0
 11
68.2459317149
 21
30.5257960268
 31
0.0
  0
LINE
  5
E8
330
1F
100
AcDbEntity
  8
0
  6
Continuous
 62
     7
370
    15
100
AcDbLine
 10
63.245932758
 20
30.5257960268
 30
0.0
 11
63.245932758
 21
25.5257970699
 31
0.0
  0
CIRCLE
  5
E9
330
1F
100
AcDbEntity
  8
0
  6
Continuous
 62
     7
370
    15
100
AcDbCircle
 10
186.2459320043
 20
38.0257952577
 30
0.0
 40
1.0
  0
CIRCLE
  5
EA
330
1F
100
AcDbEntity
  8
0
  6
Continuous
 62
     7
370
    15
100
AcDbCircle
 10
176.2459320043
 20
38.0257952577
 30
0.0
 40
1.0
  0
CIRCLE
  5
EB
330
1F
100
AcDbEntity
  8
0
  6
Continuous
 62
     7
370
    15
100
AcDbCircle
 10
447.1515712266
 20
75.4299870237
 30
0.0
 40
3.0
  0
CIRCLE
  5
EC
330
1F
100
AcDbEntity
  8
0
  6
Continuous
 62
     7
370
    15
100
AcDbCircle
 10
427.3399448552
 20
40.7466886658
 30
0.0
 40
3.0
  0
CIRCLE
  5
ED
330
1F
100
AcDbEntity
  8
0
  6
Continuous
 62
     7
370
    15
100
AcDbCircle
 10
533.3399448552
 20
178.7466886658
 30
0.0
 40
2.0
  0
CIRCLE
  5
EE
330
1F
100
AcDbEntity
  8
0
  6
Continuous
 62
     7
370
    15
100
AcDbCircle
 10
383.3399448552
 20
178.7466886658
 30
0.0
 40
2.0
  0
CIRCLE
  5
EF
330
1F
100
AcDbEntity
  8
0
  6
Continuous
 62
     7
370
    15
100
AcDbCircle
 10
554.3399448552
 20
84.2466886658
 30
0.0
 40
1.500000000000114
  0
CIRCLE
  5
F0
330
1F
100
AcDbEntity
  8
0
  6
Continuous
 62
     7
370
    15
100
AcDbCircle
 10
554.3399448552
 20
143.2466886658
 30
0.0
 40
1.5
  0
CIRCLE
  5
F1
330
1F
100
AcDbEntity
  8
0
  6
Continuous
 62
     7
370
    15
100
AcDbCircle
 10
300.3399448552
 20
84.2466886658
 30
0.0
 40
1.5
  0
CIRCLE
  5
F2
330
1F
100
AcDbEntity
  8
0
  6
Continuous
 62
     7
370
    15
100
AcDbCircle
 10
309.3399448552
 20
143.2466886658
 30
0.0
 40
1.5
  0
ELLIPSE
  5
F3
330
1F
100
AcDbEntity
  8
0
  6
Continuous
 62
     7
370
    15
100
AcDbEllipse
 10
502.3399448552
 20
178.7466886658
 30
0.0
 11
27.0
 21
0.0
 31
0.0
210
0.0
220
0.0
230
1.0
 40
0.7407407407
 41
0.0
 42
6.283185307179586
  0
LINE
  5
F4
330
1F
100
AcDbEntity
  8
0
  6
Continuous
 62
     7
370
    15
100
AcDbLine
 10
406.3399451383
 20
126.2466888521
 30
0.0
 11
406.3399451383
 21
101.2466884795
 31
0.0
  0
LINE
  5
F5
330
1F
100
AcDbEntity
  8
0
  6
Continuous
 62
     7
370
    15
100
AcDbLine
 10
406.3399451383
 20
101.2466884795
 30
0.0
 11
409.33994563
 21
101.2466884795
 31
0.0
  0
LINE
  5
F6
330
1F
100
AcDbEntity
  8
0
  6
Continuous
 62
     7
370
    15
100
AcDbLine
 10
409.33994563
 20
126.2466888521
 30
0.0
 11
409.33994563
 21
101.2466884795
 31
0.0
  0
LINE
  5
F7
330
1F
100
AcDbEntity
  8
0
  6
Continuous
 62
     7
370
    15
100
AcDbLine
 10
406.3399451383
 20
126.2466888521
 30
0.0
 11
409.33994563
 21
126.2466888521
 31
0.0
  0
LINE
  5
F8
330
1F
100
AcDbEntity
  8
0
  6
Continuous
 62
     7
370
    15
100
AcDbLine
 10
448.3399445721
 20
91.2466877717
 30
0.0
 11
448.3399445721
 21
96.2466885913
 31
0.0
  0
LINE
  5
F9
330
1F
100
AcDbEntity
  8
0
  6
Continuous
 62
     7
370
    15
100
AcDbLine
 10
448.3399445721
 20
96.2466885913
 30
0.0
 11
445.3399440803
 21
96.2466885913
 31
0.0
  0
LINE
  5
FA
330
1F
100
AcDbEntity
  8
0
  6
Continuous
 62
     7
370
    15
100
AcDbLine
 10
445.3399440803
 20
91.2466877717
 30
0.0
 11
445.3399440803
 21
96.2466885913
 31
0.0
  0
LINE
  5
FB
330
1F
100
AcDbEntity
  8
0
  6
Continuous
 62
     7
370
    15
100
AcDbLine
 10
448.3399445721
 20
91.2466877717
 30
0.0
 11
445.3399440803
 21
91.2466877717
 31
0.0
  0
LINE
  5
FC
330
1F
100
AcDbEntity
  8
0
  6
Continuous
 62
     7
370
    15
100
AcDbLine
 10
359.3399411597
 20
96.2466885913
 30
0.0
 11
356.3399425306
 21
96.2466885913
 31
0.0
  0
LINE
  5
FD
330
1F
100
AcDbEntity
  8
0
  6
Continuous
 62
     7
370
    15
100
AcDbLine
 10
356.3399425306
 20
96.2466885913
 30
0.0
 11
356.3399425306
 21
91.2466877717
 31
0.0
  0
LINE
  5
FE
330
1F
100
AcDbEntity
  8
0
  6
Continuous
 62
     7
370
    15
100
AcDbLine
 10
359.3399411597
 20
91.2466877717
 30
0.0
 11
356.3399425306
 21
91.2466877717
 31
0.0
  0
LINE
  5
FF
330
1F
100
AcDbEntity
  8
0
  6
Continuous
 62
     7
370
    15
100
AcDbLine
 10
359.3399411597
 20
96.2466885913
 30
0.0
 11
359.3399411597
 21
91.2466877717
 31
0.0
  0
LINE
  5
100
330
1F
100
AcDbEntity
  8
0
  6
Continuous
 62
     7
370
    15
100
AcDbLine
 10
359.3399411597
 20
116.2466886099
 30
0.0
 11
356.3399425306
 21
116.2466886099
 31
0.0
  0
LINE
  5
101
330
1F
100
AcDbEntity
  8
0
  6
Continuous
 62
     7
370
    15
100
AcDbLine
 10
356.3399425306
 20
116.2466886099
 30
0.0
 11
356.3399425306
 21
111.2466887217
 31
0.0
  0
LINE
  5
102
330
1F
100
AcDbEntity
  8
0
  6
Continuous
 62
     7
370
    15
100
AcDbLine
 10
359.3399411597
 20
111.2466887217
 30
0.0
 11
356.3399425306
 21
111.2466887217
 31
0.0
  0
LINE
  5
103
330
1F
100
AcDbEntity
  8
0
  6
Continuous
 62
     7
370
    15
100
AcDbLine
 10
359.3399411597
 20
116.2466886099
 30
0.0
 11
359.3399411597
 21
111.2466887217
 31
0.0
  0
LINE
  5
104
330
1F
100
AcDbEntity
  8
0
  6
Continuous
 62
     7
370
    15
100
AcDbLine
 10
406.3399451383
 20
136.2466895599
 30
0.0
 11
406.3399451383
 21
131.2466887403
 31
0.0
  0
LINE
  5
105
330
1F
100
AcDbEntity
  8
0
  6
Continuous
 62
     7
370
    15
100
AcDbLine
 10
406.3399451383
 20
131.2466887403
 30
0.0
 11
409.33994563
 21
131.2466887403
 31
0.0
  0
LINE
  5
106
330
1F
100
AcDbEntity
  8
0
  6
Continuous
 62
     7
370
    15
100
AcDbLine
 10
409.33994563
 20
136.2466895599
 30
0.0
 11
409.33994563
 21
131.2466887403
 31
0.0
  0
LINE
  5
107
330
1F
100
AcDbEntity
  8
0
  6
Continuous
 62
     7
370
    15
100
AcDbLine
 10
406.3399451383
 20
136.2466895599
 30
0.0
 11
409.33994563
 21
136.2466895599
 31
0.0
  0
LINE
  5
108
330
1F
100
AcDbEntity
  8
0
  6
Continuous
 62
     7
370
    15
100
AcDbLine
 10
359.3399411597
 20
131.2466887403
 30
0.0
 11
356.3399425306
 21
131.2466887403
 31
0.0
  0
LINE
  5
109
330
1F
100
AcDbEntity
  8
0
  6
Continuous
 62
     7
370
    15
100
AcDbLine
 10
359.3399411597
 20
136.2466895599
 30
0.0
 11
359.3399411597
 21
131.2466887403
 31
0.0
  0
LINE
  5
10A
330
1F
100
AcDbEntity
  8
0
  6
Continuous
 62
     7
370
    15
100
AcDbLine
 10
359.3399411597
 20
136.2466895599
 30
0.0
 11
356.3399425306
 21
136.2466895599
 31
0.0
  0
LINE
  5
10B
330
1F
100
AcDbEntity
  8
0
  6
Continuous
 62
     7
370
    15
100
AcDbLine
 10
356.3399425306
 20
136.2466895599
 30
0.0
 11
356.3399425306
 21
131.2466887403
 31
0.0
  0
LINE
  5
10C
330
1F
100
AcDbEntity
  8
0
  6
Continuous
 62
     7
370
    15
100
AcDbLine
 10
359.3399411597
 20
126.2466888521
 30
0.0
 11
356.3399425306
 21
126.2466888521
 31
0.0
  0
LINE
  5
10D
330
1F
100
AcDbEntity
  8
0
  6
Continuous
 62
     7
370
    15
100
AcDbLine
 10
356.3399425306
 20
126.2466888521
 30
0.0
 11
356.3399425306
 21
121.2466884982
 31
0.0
  0
LINE
  5
10E
330
1F
100
AcDbEntity
  8
0
  6
Continuous
 62
     7
370
    15
100
AcDbLine
 10
359.3399411597
 20
121.2466884982
 30
0.0
 11
356.3399425306
 21
121.2466884982
 31
0.0
  0
LINE
  5
10F
330
1F
100
AcDbEntity
  8
0
  6
Continuous
 62
     7
370
    15
100
AcDbLine
 10
359.3399411597
 20
126.2466888521
 30
0.0
 11
359.3399411597
 21
121.2466884982
 31
0.0
  0
LINE
  5
110
330
1F
100
AcDbEntity
  8
0
  6
Continuous
 62
     7
370
    15
100
AcDbLine
 10
359.3399411597
 20
106.2466888334
 30
0.0
 11
356.3399425306
 21
106.2466888334
 31
0.0
  0
LINE
  5
111
330
1F
100
AcDbEntity
  8
0
  6
Continuous
 62
     7
370
    15
100
AcDbLine
 10
356.3399425306
 20
106.2466888334
 30
0.0
 11
356.3399425306
 21
101.2466884795
 31
0.0
  0
LINE
  5
112
330
1F
100
AcDbEntity
  8
0
  6
Continuous
 62
     7
370
    15
100
AcDbLine
 10
359.3399411597
 20
101.2466884795
 30
0.0
 11
356.3399425306
 21
101.2466884795
 31
0.0
  0
LINE
  5
113
330
1F
100
AcDbEntity
  8
0
  6
Continuous
 62
     7
370
    15
100
AcDbLine
 10
359.3399411597
 20
106.2466888334
 30
0.0
 11
359.3399411597
 21
101.2466884795
 31
0.0
  0
LINE
  5
114
330
1F
100
AcDbEntity
  8
0
  6
Continuous
 62
     7
370
    15
100
AcDbLine
 10
495.3399485507
 20
91.2466877717
 30
0.0
 11
498.3399471798
 21
91.2466877717
 31
0.0
  0
LINE
  5
115
330
1F
100
AcDbEntity
  8
0
  6
Continuous
 62
     7
370
    15
100
AcDbLine
 10
498.3399471798
 20
96.2466885913
 30
0.0
 11
498.3399471798
 21
91.2466877717
 31
0.0
  0
LINE
  5
116
330
1F
100
AcDbEntity
  8
0
  6
Continuous
 62
     7
370
    15
100
AcDbLine
 10
495.3399485507
 20
96.2466885913
 30
0.0
 11
498.3399471798
 21
96.2466885913
 31
0.0
  0
LINE
  5
117
330
1F
100
AcDbEntity
  8
0
  6
Continuous
 62
     7
370
    15
100
AcDbLine
 10
495.3399485507
 20
96.2466885913
 30
0.0
 11
495.3399485507
 21
91.2466877717
 31
0.0
  0
LINE
  5
118
330
1F
100
AcDbEntity
  8
0
  6
Continuous
 62
     7
370
    15
100
AcDbLine
 10
495.3399485507
 20
101.2466884795
 30
0.0
 11
498.3399471798
 21
101.2466884795
 31
0.0
  0
LINE
  5
119
330
1F
100
AcDbEntity
  8
0
  6
Continuous
 62
     7
370
    15
100
AcDbLine
 10
498.3399471798
 20
106.2466888334
 30
0.0
 11
498.3399471798
 21
101.2466884795
 31
0.0
  0
LINE
  5
11A
330
1F
100
AcDbEntity
  8
0
  6
Continuous
 62
     7
370
    15
100
AcDbLine
 10
495.3399485507
 20
106.2466888334
 30
0.0
 11
498.3399471798
 21
106.2466888334
 31
0.0
  0
LINE
  5
11B
330
1F
100
AcDbEntity
  8
0
  6
Continuous
 62
     7
370
    15
100
AcDbLine
 10
495.3399485507
 20
106.2466888334
 30
0.0
 11
495.3399485507
 21
101.2466884795
 31
0.0
  0
LINE
  5
11C
330
1F
100
AcDbEntity
  8
0
  6
Continuous
 62
     7
370
    15
100
AcDbLine
 10
495.3399485507
 20
111.2466887217
 30
0.0
 11
498.3399471798
 21
111.2466887217
 31
0.0
  0
LINE
  5
11D
330
1F
100
AcDbEntity
  8
0
  6
Continuous
 62
     7
370
    15
100
AcDbLine
 10
498.3399471798
 20
116.2466886099
 30
0.0
 11
498.3399471798
 21
111.2466887217
 31
0.0
  0
LINE
  5
11E
330
1F
100
AcDbEntity
  8
0
  6
Continuous
 62
     7
370
    15
100
AcDbLine
 10
495.3399485507
 20
116.2466886099
 30
0.0
 11
498.3399471798
 21
116.2466886099
 31
0.0
  0
LINE
  5
11F
330
1F
100
AcDbEntity
  8
0
  6
Continuous
 62
     7
370
    15
100
AcDbLine
 10
495.3399485507
 20
116.2466886099
 30
0.0
 11
495.3399485507
 21
111.2466887217
 31
0.0
  0
LINE
  5
120
330
1F
100
AcDbEntity
  8
0
  6
Continuous
 62
     7
370
    15
100
AcDbLine
 10
495.3399485507
 20
131.2466887403
 30
0.0
 11
498.3399471798
 21
131.2466887403
 31
0.0
  0
LINE
  5
121
330
1F
100
AcDbEntity
  8
0
  6
Continuous
 62
     7
370
    15
100
AcDbLine
 10
498.3399471798
 20
136.2466895599
 30
0.0
 11
498.3399471798
 21
131.2466887403
 31
0.0
  0
LINE
  5
122
330
1F
100
AcDbEntity
  8
0
  6
Continuous
 62
     7
370
    15
100
AcDbLine
 10
495.3399485507
 20
136.2466895599
 30
0.0
 11
498.3399471798
 21
136.2466895599
 31
0.0
  0
LINE
  5
123
330
1F
100
AcDbEntity
  8
0
  6
Continuous
 62
     7
370
    15
100
AcDbLine
 10
495.3399485507
 20
136.2466895599
 30
0.0
 11
495.3399485507
 21
131.2466887403
 31
0.0
  0
LINE
  5
124
330
1F
100
AcDbEntity
  8
0
  6
Continuous
 62
     7
370
    15
100
AcDbLine
 10
495.3399485507
 20
121.2466884982
 30
0.0
 11
498.3399471798
 21
121.2466884982
 31
0.0
  0
LINE
  5
125
330
1F
100
AcDbEntity
  8
0
  6
Continuous
 62
     7
370
    15
100
AcDbLine
 10
498.3399471798
 20
126.2466888521
 30
0.0
 11
498.3399471798
 21
121.2466884982
 31
0.0
  0
LINE
  5
126
330
1F
100
AcDbEntity
  8
0
  6
Continuous
 62
     7
370
    15
100
AcDbLine
 10
495.3399485507
 20
126.2466888521
 30
0.0
 11
498.3399471798
 21
126.2466888521
 31
0.0
  0
LINE
  5
127
330
1F
100
AcDbEntity
  8
0
  6
Continuous
 62
     7
370
    15
100
AcDbLine
 10
495.3399485507
 20
126.2466888521
 30
0.0
 11
495.3399485507
 21
121.2466884982
 31
0.0
  0
LINE
  5
128
330
1F
100
AcDbEntity
  8
0
  6
Continuous
 62
     7
370
    15
100
AcDbLine
 10
445.3399440803
 20
136.2466895599
 30
0.0
 11
445.3399440803
 21
131.2466887403
 31
0.0
  0
LINE
  5
129
330
1F
100
AcDbEntity
  8
0
  6
Continuous
 62
     7
370
    15
100
AcDbLine
 10
448.3399445721
 20
131.2466887403
 30
0.0
 11
445.3399440803
 21
131.2466887403
 31
0.0
  0
LINE
  5
12A
330
1F
100
AcDbEntity
  8
0
  6
Continuous
 62
     7
370
    15
100
AcDbLine
 10
448.3399445721
 20
136.2466895599
 30
0.0
 11
448.3399445721
 21
131.2466887403
 31
0.0
  0
LINE
  5
12B
330
1F
100
AcDbEntity
  8
0
  6
Continuous
 62
     7
370
    15
100
AcDbLine
 10
448.3399445721
 20
136.2466895599
 30
0.0
 11
445.3399440803
 21
136.2466895599
 31
0.0
  0
LINE
  5
12C
330
1F
100
AcDbEntity
  8
0
  6
Continuous
 62
     7
370
    15
100
AcDbLine
 10
409.33994563
 20
91.2466877717
 30
0.0
 11
409.33994563
 21
96.2466885913
 31
0.0
  0
LINE
  5
12D
330
1F
100
AcDbEntity
  8
0
  6
Continuous
 62
     7
370
    15
100
AcDbLine
 10
406.3399451383
 20
96.2466885913
 30
0.0
 11
409.33994563
 21
96.2466885913
 31
0.0
  0
LINE
  5
12E
330
1F
100
AcDbEntity
  8
0
  6
Continuous
 62
     7
370
    15
100
AcDbLine
 10
406.3399451383
 20
91.2466877717
 30
0.0
 11
406.3399451383
 21
96.2466885913
 31
0.0
  0
LINE
  5
12F
330
1F
100
AcDbEntity
  8
0
  6
Continuous
 62
     7
370
    15
100
AcDbLine
 10
406.3399451383
 20
91.2466877717
 30
0.0
 11
409.33994563
 21
91.2466877717
 31
0.0
  0
LINE
  5
130
330
1F
100
AcDbEntity
  8
0
  6
Continuous
 62
     7
370
    15
100
AcDbLine
 10
445.3399440803
 20
126.2466888521
 30
0.0
 11
445.3399440803
 21
101.2466884795
 31
0.0
  0
LINE
  5
131
330
1F
100
AcDbEntity
  8
0
  6
Continuous
 62
     7
370
    15
100
AcDbLine
 10
448.3399445721
 20
101.2466884795
 30
0.0
 11
445.3399440803
 21
101.2466884795
 31
0.0
  0
LINE
  5
132
330
1F
100
AcDbEntity
  8
0
  6
Continuous
 62
     7
370
    15
100
AcDbLine
 10
448.3399445721
 20
126.2466888521
 30
0.0
 11
448.3399445721
 21
101.2466884795
 31
0.0
  0
LINE
  5
133
330
1F
100
AcDbEntity
  8
0
  6
Continuous
 62
     7
370
    15
100
AcDbLine
 10
448.3399445721
 20
126.2466888521
 30
0.0
 11
445.3399440803
 21
126.2466888521
 31
0.0
  0
ELLIPSE
  5
134
330
1F
100
AcDbEntity
  8
0
  6
Continuous
 62
     7
370
    15
100
AcDbEllipse
 10
352.3399448552
 20
178.7466886658
 30
0.0
 11
-26.99999999999989
 21
0.0
 31
0.0
210
0.0
220
0.0
230
1.0
 40
0.7407407407
 41
0.0
 42
6.283185307179586
  0
CIRCLE
  5
135
330
1F
100
AcDbEntity
  8
0
  6
Continuous
 62
     7
370
    15
100
AcDbCircle
 10
300.3399448552
 20
143.2466886658
 30
0.0
 40
1.5
  0
CIRCLE
  5
136
330
1F
100
AcDbEntity
  8
0
  6
Continuous
 62
     7
370
    15
100
AcDbCircle
 10
309.3399448552
 20
84.2466886658
 30
0.0
 40
1.5
  0
CIRCLE
  5
137
330
1F
100
AcDbEntity
  8
0
  6
Continuous
 62
     7
370
    15
100
AcDbCircle
 10
545.3399448552
 20
143.2466886658
 30
0.0
 40
1.5
  0
CIRCLE
  5
138
330
1F
100
AcDbEntity
  8
0
  6
Continuous
 62
     7
370
    15
100
AcDbCircle
 10
545.3399448552
 20
84.2466886658
 30
0.0
 40
1.5
  0
CIRCLE
  5
139
330
1F
100
AcDbEntity
  8
0
  6
Continuous
 62
     7
370
    15
100
AcDbCircle
 10
321.3399448552
 20
178.7466886658
 30
0.0
 40
2.0
  0
CIRCLE
  5
13A
330
1F
100
AcDbEntity
  8
0
  6
Continuous
 62
     7
370
    15
100
AcDbCircle
 10
471.3399448552
 20
178.7466886658
 30
0.0
 40
2.0
  0
CIRCLE
  5
13B
330
1F
100
AcDbEntity
  8
0
  6
Continuous
 62
     7
370
    15
100
AcDbCircle
 10
427.3399448552
 20
63.7466886658
 30
0.0
 40
12.5
  0
CIRCLE
  5
13C
330
1F
100
AcDbEntity
  8
0
  6
Continuous
 62
     7
370
    15
100
AcDbCircle
 10
407.3133127467
 20
75.0574802559
 30
0.0
 40
3.0
  0
ARC
  5
13D
330
1F
100
AcDbEntity
  8
0
  6
Continuous
 62
     7
370
    15
100
AcDbCircle
 10
343.5951165894
 20
23.7466886658
 30
0.0
 40
9.999999999999993
100
AcDbArc
 50
270.0
 51
335.4302674044
  0
LINE
  5
13E
330
1F
100
AcDbEntity
  8
0
  6
Continuous
 62
     7
370
    15
100
AcDbLine
 10
327.3399433651
 20
13.7466871757
 30
0.0
 11
343.5951134719
 21
13.7466871757
 31
0.0
  0
LINE
  5
13F
330
1F
100
AcDbEntity
  8
0
  6
Continuous
 62
     7
370
    15
100
AcDbLine
 10
327.3399433651
 20
13.7466871757
 30
0.0
 11
334.4110137381
 21
20.8177575487
 31
0.0
  0
LINE
  5
140
330
1F
100
AcDbEntity
  8
0
  6
Continuous
 62
     7
370
    15
100
AcDbLine
 10
334.4110137381
 20
20.8177575487
 30
0.0
 11
326.837416605
 21
28.3913472313
 31
0.0
  0
LINE
  5
141
330
1F
100
AcDbEntity
  8
0
  6
Continuous
 62
     7
370
    15
100
AcDbLine
 10
326.837416605
 20
28.3913472313
 30
0.0
 11
319.7663536825
 21
21.3202843088
 31
0.0
  0
LINE
  5
142
330
1F
100
AcDbEntity
  8
0
  6
Continuous
 62
     7
370
    15
100
AcDbLine
 10
312.6952833094
 20
28.3913472313
 30
0.0
 11
319.7663536825
 21
21.3202843088
 31
0.0
  0
LINE
  5
143
330
1F
100
AcDbEntity
  8
0
  6
Continuous
 62
     7
370
    15
100
AcDbLine
 10
319.7663536825
 20
35.4624176044
 30
0.0
 11
312.6952833094
 21
28.3913472313
 31
0.0
  0
LINE
  5
144
330
1F
100
AcDbEntity
  8
0
  6
Continuous
 62
     7
370
    15
100
AcDbLine
 10
312.6952833094
 20
42.5334879774
 30
0.0
 11
319.7663536825
 21
35.4624176044
 31
0.0
  0
LINE
  5
145
330
1F
100
AcDbEntity
  8
0
  6
Continuous
 62
     7
370
    15
100
AcDbLine
 10
305.6242129364
 20
35.4624176044
 30
0.0
 11
312.6952833094
 21
42.5334879774
 31
0.0
  0
LINE
  5
146
330
1F
100
AcDbEntity
  8
0
  6
Continuous
 62
     7
370
    15
100
AcDbLine
 10
298.5531425633
 20
42.5334879774
 30
0.0
 11
305.6242129364
 21
35.4624176044
 31
0.0
  0
LINE
  5
147
330
1F
100
AcDbEntity
  8
0
  6
Continuous
 62
     7
370
    15
100
AcDbLine
 10
305.6242129364
 20
49.6045508999
 30
0.0
 11
298.5531425633
 21
42.5334879774
 31
0.0
  0
LINE
  5
148
330
1F
100
AcDbEntity
  8
0
  6
Continuous
 62
     7
370
    15
100
AcDbLine
 10
298.5531425633
 20
56.675621273
 30
0.0
 11
305.6242129364
 21
49.6045508999
 31
0.0
  0
LINE
  5
149
330
1F
100
AcDbEntity
  8
0
  6
Continuous
 62
     7
370
    15
100
AcDbLine
 10
291.4820796408
 20
49.6045508999
 30
0.0
 11
298.5531425633
 21
56.675621273
 31
0.0
  0
LINE
  5
14A
330
1F
100
AcDbEntity
  8
0
  6
Continuous
 62
     7
370
    15
100
AcDbLine
 10
284.4110167184
 20
56.675621273
 30
0.0
 11
291.4820796408
 21
49.6045508999
 31
0.0
  0
LINE
  5
14B
330
1F
100
AcDbEntity
  8
0
  6
Continuous
 62
     7
370
    15
100
AcDbLine
 10
284.4110167184
 20
56.675621273
 30
0.0
 11
291.4820796408
 21
63.7466879207
 31
0.0
  0
LINE
  5
14C
330
1F
100
AcDbEntity
  8
0
  6
Continuous
 62
     7
370
    15
100
AcDbLine
 10
291.4820796408
 20
63.7466879207
 30
0.0
 11
284.4110167184
 21
70.8177582938
 31
0.0
  0
LINE
  5
14D
330
1F
100
AcDbEntity
  8
0
  6
Continuous
 62
     7
370
    15
100
AcDbLine
 10
284.4110167184
 20
70.8177582938
 30
0.0
 11
277.3399388947
 21
63.7466879207
 31
0.0
  0
LINE
  5
14E
330
1F
100
AcDbEntity
  8
0
  6
Continuous
 62
     7
370
    15
100
AcDbLine
 10
277.3399388947
 20
63.7466879207
 30
0.0
 11
277.3399388947
 21
90.7466886211
 31
0.0
  0
LINE
  5
14F
330
1F
100
AcDbEntity
  8
0
  6
Continuous
 62
     7
370
    15
100
AcDbLine
 10
277.3399388947
 20
90.7466886211
 30
0.0
 11
294.3399435439
 21
90.7466886211
 31
0.0
  0
LINE
  5
150
330
1F
100
AcDbEntity
  8
0
  6
Continuous
 62
     7
370
    15
100
AcDbLine
 10
294.3399435439
 20
96.2466885913
 30
0.0
 11
294.3399435439
 21
90.7466886211
 31
0.0
  0
LINE
  5
151
330
1F
100
AcDbEntity
  8
0
  6
Continuous
 62
     7
370
    15
100
AcDbLine
 10
294.3399435439
 20
96.2466885913
 30
0.0
 11
327.3399433651
 21
96.2466885913
 31
0.0
  0
LINE
  5
152
330
1F
100
AcDbEntity
  8
0
  6
Continuous
 62
     7
370
    15
100
AcDbLine
 10
327.3399433651
 20
96.2466885913
 30
0.0
 11
327.3399433651
 21
87.7466881294
 31
0.0
  0
LINE
  5
153
330
1F
100
AcDbEntity
  8
0
  6
Continuous
 62
     7
370
    15
100
AcDbLine
 10
327.3399433651
 20
87.7466881294
 30
0.0
 11
351.339947299
 21
87.7466881294
 31
0.0
  0
LINE
  5
154
330
1F
100
AcDbEntity
  8
0
  6
Continuous
 62
     7
370
    15
100
AcDbLine
 10
351.339947299
 20
139.7466892022
 30
0.0
 11
351.339947299
 21
87.7466881294
 31
0.0
  0
LINE
  5
155
330
1F
100
AcDbEntity
  8
0
  6
Continuous
 62
     7
370
    15
100
AcDbLine
 10
327.3399433651
 20
139.7466892022
 30
0.0
 11
351.339947299
 21
139.7466892022
 31
0.0
  0
LINE
  5
156
330
1F
100
AcDbEntity
  8
0
  6
Continuous
 62
     7
370
    15
100
AcDbLine
 10
327.3399433651
 20
139.7466892022
 30
0.0
 11
327.3399433651
 21
131.2466887403
 31
0.0
  0
LINE
  5
157
330
1F
100
AcDbEntity
  8
0
  6
Continuous
 62
     7
370
    15
100
AcDbLine
 10
294.3399435439
 20
131.2466887403
 30
0.0
 11
327.3399433651
 21
131.2466887403
 31
0.0
  0
LINE
  5
158
330
1F
100
AcDbEntity
  8
0
  6
Continuous
 62
     7
370
    15
100
AcDbLine
 10
294.3399435439
 20
136.7466887105
 30
0.0
 11
294.3399435439
 21
131.2466887403
 31
0.0
  0
LINE
  5
159
330
1F
100
AcDbEntity
  8
0
  6
Continuous
 62
     7
370
    15
100
AcDbLine
 10
277.3399388947
 20
136.7466887105
 30
0.0
 11
294.3399435439
 21
136.7466887105
 31
0.0
  0
LINE
  5
15A
330
1F
100
AcDbEntity
  8
0
  6
Continuous
 62
     7
370
    15
100
AcDbLine
 10
277.3399388947
 20
136.7466887105
 30
0.0
 11
277.3399388947
 21
163.7466894109
 31
0.0
  0
LINE
  5
15B
330
1F
100
AcDbEntity
  8
0
  6
Continuous
 62
     7
370
    15
100
AcDbLine
 10
284.4110167184
 20
156.6756190378
 30
0.0
 11
277.3399388947
 21
163.7466894109
 31
0.0
  0
LINE
  5
15C
330
1F
100
AcDbEntity
  8
0
  6
Continuous
 62
     7
370
    15
100
AcDbLine
 10
291.4820796408
 20
163.7466894109
 30
0.0
 11
284.4110167184
 21
156.6756190378
 31
0.0
  0
LINE
  5
15D
330
1F
100
AcDbEntity
  8
0
  6
Continuous
 62
     7
370
    15
100
AcDbLine
 10
284.4110167184
 20
170.8177560586
 30
0.0
 11
291.4820796408
 21
163.7466894109
 31
0.0
  0
LINE
  5
15E
330
1F
100
AcDbEntity
  8
0
  6
Continuous
 62
     7
370
    15
100
AcDbLine
 10
284.4110167184
 20
170.8177560586
 30
0.0
 11
291.4820796408
 21
177.8888264317
 31
0.0
  0
LINE
  5
15F
330
1F
100
AcDbEntity
  8
0
  6
Continuous
 62
     7
370
    15
100
AcDbLine
 10
291.4820796408
 20
177.8888264317
 30
0.0
 11
298.5531425633
 21
170.8177560586
 31
0.0
  0
LINE
  5
160
330
1F
100
AcDbEntity
  8
0
  6
Continuous
 62
     7
370
    15
100
AcDbLine
 10
298.5531425633
 20
170.8177560586
 30
0.0
 11
305.6242129364
 21
177.8888264317
 31
0.0
  0
LINE
  5
161
330
1F
100
AcDbEntity
  8
0
  6
Continuous
 62
     7
370
    15
100
AcDbLine
 10
305.6242129364
 20
177.8888264317
 30
0.0
 11
298.5531425633
 21
184.9598893542
 31
0.0
  0
LINE
  5
162
330
1F
100
AcDbEntity
  8
0
  6
Continuous
 62
     7
370
    15
100
AcDbLine
 10
298.5531425633
 20
184.9598893542
 30
0.0
 11
305.6242129364
 21
192.0309597272
 31
0.0
  0
LINE
  5
163
330
1F
100
AcDbEntity
  8
0
  6
Continuous
 62
     7
370
    15
100
AcDbLine
 10
305.6242129364
 20
192.0309597272
 30
0.0
 11
312.6952833094
 21
184.9598893542
 31
0.0
  0
LINE
  5
164
330
1F
100
AcDbEntity
  8
0
  6
Continuous
 62
     7
370
    15
100
AcDbLine
 10
312.6952833094
 20
184.9598893542
 30
0.0
 11
319.7663536825
 21
192.0309597272
 31
0.0
  0
LINE
  5
165
330
1F
100
AcDbEntity
  8
0
  6
Continuous
 62
     7
370
    15
100
AcDbLine
 10
319.7663536825
 20
192.0309597272
 30
0.0
 11
312.6952833094
 21
199.1020301003
 31
0.0
  0
LINE
  5
166
330
1F
100
AcDbEntity
  8
0
  6
Continuous
 62
     7
370
    15
100
AcDbLine
 10
312.6952833094
 20
199.1020301003
 30
0.0
 11
319.7663536825
 21
206.1730930228
 31
0.0
  0
LINE
  5
167
330
1F
100
AcDbEntity
  8
0
  6
Continuous
 62
     7
370
    15
100
AcDbLine
 10
326.837416605
 20
199.1020301003
 30
0.0
 11
319.7663536825
 21
206.1730930228
 31
0.0
  0
LINE
  5
168
330
1F
100
AcDbEntity
  8
0
  6
Continuous
 62
     7
370
    15
100
AcDbLine
 10
334.4110137381
 20
206.6756197829
 30
0.0
 11
326.837416605
 21
199.1020301003
 31
0.0
  0
LINE
  5
169
330
1F
100
AcDbEntity
  8
0
  6
Continuous
 62
     7
370
    15
100
AcDbLine
 10
327.3399433651
 20
213.7466901559
 30
0.0
 11
334.4110137381
 21
206.6756197829
 31
0.0
  0
LINE
  5
16A
330
1F
100
AcDbEntity
  8
0
  6
Continuous
 62
     7
370
    15
100
AcDbLine
 10
327.3399433651
 20
213.7466901559
 30
0.0
 11
410.0194367178
 21
213.7466901559
 31
0.0
  0
LINE
  5
16B
330
1F
100
AcDbEntity
  8
0
  6
Continuous
 62
     7
370
    15
100
AcDbLine
 10
410.0194367178
 20
213.7466901559
 30
0.0
 11
427.3399448595
 21
203.7466922421
 31
0.0
  0
LINE
  5
16C
330
1F
100
AcDbEntity
  8
0
  6
Continuous
 62
     7
370
    15
100
AcDbLine
 10
427.3399448595
 20
203.7466922421
 30
0.0
 11
444.6604529925
 21
213.7466901559
 31
0.0
  0
LINE
  5
16D
330
1F
100
AcDbEntity
  8
0
  6
Continuous
 62
     7
370
    15
100
AcDbLine
 10
444.6604529925
 20
213.7466901559
 30
0.0
 11
527.3399463453
 21
213.7466901559
 31
0.0
  0
LINE
  5
16E
330
1F
100
AcDbEntity
  8
0
  6
Continuous
 62
     7
370
    15
100
AcDbLine
 10
527.3399463453
 20
213.7466901559
 30
0.0
 11
520.2688759722
 21
206.6756197829
 31
0.0
  0
LINE
  5
16F
330
1F
100
AcDbEntity
  8
0
  6
Continuous
 62
     7
370
    15
100
AcDbLine
 10
520.2688759722
 20
206.6756197829
 30
0.0
 11
527.8424731054
 21
199.1020301003
 31
0.0
  0
LINE
  5
170
330
1F
100
AcDbEntity
  8
0
  6
Continuous
 62
     7
370
    15
100
AcDbLine
 10
527.8424731054
 20
199.1020301003
 30
0.0
 11
534.9135360279
 21
206.1730930228
 31
0.0
  0
LINE
  5
171
330
1F
100
AcDbEntity
  8
0
  6
Continuous
 62
     7
370
    15
100
AcDbLine
 10
541.9846064009
 20
199.1020301003
 30
0.0
 11
534.9135360279
 21
206.1730930228
 31
0.0
  0
LINE
  5
172
330
1F
100
AcDbEntity
  8
0
  6
Continuous
 62
     7
370
    15
100
AcDbLine
 10
534.9135360279
 20
192.0309597272
 30
0.0
 11
541.9846064009
 21
199.1020301003
 31
0.0
  0
LINE
  5
173
330
1F
100
AcDbEntity
  8
0
  6
Continuous
 62
     7
370
    15
100
AcDbLine
 10
541.9846064009
 20
184.9598893542
 30
0.0
 11
534.9135360279
 21
192.0309597272
 31
0.0
  0
LINE
  5
174
330
1F
100
AcDbEntity
  8
0
  6
Continuous
 62
     7
370
    15
100
AcDbLine
 10
549.055676774
 20
192.0309597272
 30
0.0
 11
541.9846064009
 21
184.9598893542
 31
0.0
  0
LINE
  5
175
330
1F
100
AcDbEntity
  8
0
  6
Continuous
 62
     7
370
    15
100
AcDbLine
 10
556.126747147
 20
184.9598893542
 30
0.0
 11
549.055676774
 21
192.0309597272
 31
0.0
  0
LINE
  5
176
330
1F
100
AcDbEntity
  8
0
  6
Continuous
 62
     7
370
    15
100
AcDbLine
 10
549.055676774
 20
177.8888264317
 30
0.0
 11
556.126747147
 21
184.9598893542
 31
0.0
  0
LINE
  5
177
330
1F
100
AcDbEntity
  8
0
  6
Continuous
 62
     7
370
    15
100
AcDbLine
 10
556.126747147
 20
170.8177560586
 30
0.0
 11
549.055676774
 21
177.8888264317
 31
0.0
  0
LINE
  5
178
330
1F
100
AcDbEntity
  8
0
  6
Continuous
 62
     7
370
    15
100
AcDbLine
 10
563.1978100695
 20
177.8888264317
 30
0.0
 11
556.126747147
 21
170.8177560586
 31
0.0
  0
LINE
  5
179
330
1F
100
AcDbEntity
  8
0
  6
Continuous
 62
     7
370
    15
100
AcDbLine
 10
570.268872992
 20
170.8177560586
 30
0.0
 11
563.1978100695
 21
177.8888264317
 31
0.0
  0
LINE
  5
17A
330
1F
100
AcDbEntity
  8
0
  6
Continuous
 62
     7
370
    15
100
AcDbLine
 10
570.268872992
 20
170.8177560586
 30
0.0
 11
563.1978100695
 21
163.7466894109
 31
0.0
  0
LINE
  5
17B
330
1F
100
AcDbEntity
  8
0
  6
Continuous
 62
     7
370
    15
100
AcDbLine
 10
563.1978100695
 20
163.7466894109
 30
0.0
 11
570.268872992
 21
156.6756190378
 31
0.0
  0
LINE
  5
17C
330
1F
100
AcDbEntity
  8
0
  6
Continuous
 62
     7
370
    15
100
AcDbLine
 10
570.268872992
 20
156.6756190378
 30
0.0
 11
577.3399508156
 21
163.7466894109
 31
0.0
  0
LINE
  5
17D
330
1F
100
AcDbEntity
  8
0
  6
Continuous
 62
     7
370
    15
100
AcDbLine
 10
577.3399508156
 20
136.7466887105
 30
0.0
 11
577.3399508156
 21
163.7466894109
 31
0.0
  0
LINE
  5
17E
330
1F
100
AcDbEntity
  8
0
  6
Continuous
 62
     7
370
    15
100
AcDbLine
 10
577.3399508156
 20
136.7466887105
 30
0.0
 11
560.3399461665
 21
136.7466887105
 31
0.0
  0
LINE
  5
17F
330
1F
100
AcDbEntity
  8
0
  6
Continuous
 62
     7
370
    15
100
AcDbLine
 10
560.3399461665
 20
136.7466887105
 30
0.0
 11
560.3399461665
 21
131.2466887403
 31
0.0
  0
LINE
  5
180
330
1F
100
AcDbEntity
  8
0
  6
Continuous
 62
     7
370
    15
100
AcDbLine
 10
560.3399461665
 20
131.2466887403
 30
0.0
 11
527.3399463453
 21
131.2466887403
 31
0.0
  0
LINE
  5
181
330
1F
100
AcDbEntity
  8
0
  6
Continuous
 62
     7
370
    15
100
AcDbLine
 10
527.3399463453
 20
139.7466892022
 30
0.0
 11
527.3399463453
 21
131.2466887403
 31
0.0
  0
LINE
  5
182
330
1F
100
AcDbEntity
  8
0
  6
Continuous
 62
     7
370
    15
100
AcDbLine
 10
527.3399463453
 20
139.7466892022
 30
0.0
 11
503.3399424114
 21
139.7466892022
 31
0.0
  0
LINE
  5
183
330
1F
100
AcDbEntity
  8
0
  6
Continuous
 62
     7
370
    15
100
AcDbLine
 10
503.3399424114
 20
139.7466892022
 30
0.0
 11
503.3399424114
 21
87.7466881294
 31
0.0
  0
LINE
  5
184
330
1F
100
AcDbEntity
  8
0
  6
Continuous
 62
     7
370
    15
100
AcDbLine
 10
527.3399463453
 20
87.7466881294
 30
0.0
 11
503.3399424114
 21
87.7466881294
 31
0.0
  0
LINE
  5
185
330
1F
100
AcDbEntity
  8
0
  6
Continuous
 62
     7
370
    15
100
AcDbLine
 10
527.3399463453
 20
96.2466885913
 30
0.0
 11
527.3399463453
 21
87.7466881294
 31
0.0
  0
LINE
  5
186
330
1F
100
AcDbEntity
  8
0
  6
Continuous
 62
     7
370
    15
100
AcDbLine
 10
560.3399461665
 20
96.2466885913
 30
0.0
 11
527.3399463453
 21
96.2466885913
 31
0.0
  0
LINE
  5
187
330
1F
100
AcDbEntity
  8
0
  6
Continuous
 62
     7
370
    15
100
AcDbLine
 10
560.3399461665
 20
96.2466885913
 30
0.0
 11
560.3399461665
 21
90.7466886211
 31
0.0
  0
LINE
  5
188
330
1F
100
AcDbEntity
  8
0
  6
Continuous
 62
     7
370
    15
100
AcDbLine
 10
577.3399508156
 20
90.7466886211
 30
0.0
 11
560.3399461665
 21
90.7466886211
 31
0.0
  0
LINE
  5
189
330
1F
100
AcDbEntity
  8
0
  6
Continuous
 62
     7
370
    15
100
AcDbLine
 10
577.3399508156
 20
63.7466879207
 30
0.0
 11
577.3399508156
 21
90.7466886211
 31
0.0
  0
LINE
  5
18A
330
1F
100
AcDbEntity
  8
0
  6
Continuous
 62
     7
370
    15
100
AcDbLine
 10
570.268872992
 20
70.8177582938
 30
0.0
 11
577.3399508156
 21
63.7466879207
 31
0.0
  0
LINE
  5
18B
330
1F
100
AcDbEntity
  8
0
  6
Continuous
 62
     7
370
    15
100
AcDbLine
 10
563.1978100695
 20
63.7466879207
 30
0.0
 11
570.268872992
 21
70.8177582938
 31
0.0
  0
LINE
  5
18C
330
1F
100
AcDbEntity
  8
0
  6
Continuous
 62
     7
370
    15
100
AcDbLine
 10
570.268872992
 20
56.675621273
 30
0.0
 11
563.1978100695
 21
63.7466879207
 31
0.0
  0
LINE
  5
18D
330
1F
100
AcDbEntity
  8
0
  6
Continuous
 62
     7
370
    15
100
AcDbLine
 10
570.268872992
 20
56.675621273
 30
0.0
 11
563.1978100695
 21
49.6045508999
 31
0.0
  0
LINE
  5
18E
330
1F
100
AcDbEntity
  8
0
  6
Continuous
 62
     7
370
    15
100
AcDbLine
 10
563.1978100695
 20
49.6045508999
 30
0.0
 11
556.126747147
 21
56.675621273
 31
0.0
  0
LINE
  5
18F
330
1F
100
AcDbEntity
  8
0
  6
Continuous
 62
     7
370
    15
100
AcDbLine
 10
556.126747147
 20
56.675621273
 30
0.0
 11
549.055676774
 21
49.6045508999
 31
0.0
  0
LINE
  5
190
330
1F
100
AcDbEntity
  8
0
  6
Continuous
 62
     7
370
    15
100
AcDbLine
 10
549.055676774
 20
49.6045508999
 30
0.0
 11
556.126747147
 21
42.5334879774
 31
0.0
  0
LINE
  5
191
330
1F
100
AcDbEntity
  8
0
  6
Continuous
 62
     7
370
    15
100
AcDbLine
 10
556.126747147
 20
42.5334879774
 30
0.0
 11
549.055676774
 21
35.4624176044
 31
0.0
  0
LINE
  5
192
330
1F
100
AcDbEntity
  8
0
  6
Continuous
 62
     7
370
    15
100
AcDbLine
 10
549.055676774
 20
35.4624176044
 30
0.0
 11
541.9846064009
 21
42.5334879774
 31
0.0
  0
LINE
  5
193
330
1F
100
AcDbEntity
  8
0
  6
Continuous
 62
     7
370
    15
100
AcDbLine
 10
541.9846064009
 20
42.5334879774
 30
0.0
 11
534.9135360279
 21
35.4624176044
 31
0.0
  0
LINE
  5
194
330
1F
100
AcDbEntity
  8
0
  6
Continuous
 62
     7
370
    15
100
AcDbLine
 10
534.9135360279
 20
35.4624176044
 30
0.0
 11
541.9846064009
 21
28.3913472313
 31
0.0
  0
LINE
  5
195
330
1F
100
AcDbEntity
  8
0
  6
Continuous
 62
     7
370
    15
100
AcDbLine
 10
541.9846064009
 20
28.3913472313
 30
0.0
 11
534.9135360279
 21
21.3202843088
 31
0.0
  0
LINE
  5
196
330
1F
100
AcDbEntity
  8
0
  6
Continuous
 62
     7
370
    15
100
AcDbLine
 10
527.8424731054
 20
28.3913472313
 30
0.0
 11
534.9135360279
 21
21.3202843088
 31
0.0
  0
LINE
  5
197
330
1F
100
AcDbEntity
  8
0
  6
Continuous
 62
     7
370
    15
100
AcDbLine
 10
520.2688759722
 20
20.8177575487
 30
0.0
 11
527.8424731054
 21
28.3913472313
 31
0.0
  0
LINE
  5
198
330
1F
100
AcDbEntity
  8
0
  6
Continuous
 62
     7
370
    15
100
AcDbLine
 10
527.3399463453
 20
13.7466871757
 30
0.0
 11
520.2688759722
 21
20.8177575487
 31
0.0
  0
LINE
  5
199
330
1F
100
AcDbEntity
  8
0
  6
Continuous
 62
     7
370
    15
100
AcDbLine
 10
511.0847762384
 20
13.7466871757
 30
0.0
 11
527.3399463453
 21
13.7466871757
 31
0.0
  0
ARC
  5
19A
330
1F
100
AcDbEntity
  8
0
  6
Continuous
 62
     7
370
    15
100
AcDbCircle
 10
511.0847731209
 20
23.7466886658
 30
0.0
 40
10.00000000000001
100
AcDbArc
 50
204.5697325956
 51
270.0
  0
ARC
  5
19B
330
1F
100
AcDbEntity
  8
0
  6
Continuous
 62
     7
370
    15
100
AcDbCircle
 10
467.3399448552
 20
3.7466886658
 30
0.0
 40
38.10000000000015
100
AcDbArc
 50
24.5697325956
 51
129.7151372318
  0
ARC
  5
19C
330
1F
100
AcDbEntity
  8
0
  6
Continuous
 62
     7
370
    15
100
AcDbCircle
 10
436.6054365624
 20
40.7466886658
 30
0.0
 40
9.999999999999998
100
AcDbArc
 50
270.0
 51
309.7151372318
  0
LINE
  5
19D
330
1F
100
AcDbEntity
  8
0
  6
Continuous
 62
     7
370
    15
100
AcDbLine
 10
436.6054365941
 20
30.7466918248
 30
0.0
 11
418.0744531163
 21
30.7466918248
 31
0.0
  0
ARC
  5
19E
330
1F
100
AcDbEntity
  8
0
  6
Continuous
 62
     7
370
    15
100
AcDbCircle
 10
418.074453148
 20
40.7466886658
 30
0.0
 40
9.999999999999996
100
AcDbArc
 50
230.2848627682
 51
270.0
  0
ARC
  5
19F
330
1F
100
AcDbEntity
  8
0
  6
Continuous
 62
     7
370
    15
100
AcDbCircle
 10
387.3399448552
 20
3.7466886658
 30
0.0
 40
38.10000000000004
100
AcDbArc
 50
50.2848627682
 51
155.4302674044
  0
LINE
  5
1A0
330
1F
100
AcDbEntity
  8
0
  6
Continuous
 62
     7
370
    15
100
AcDbLine
 10
399.4899446674
 20
178.7466862816
 30
0.0
 11
402.4899451592
 21
178.7466862816
 31
0.0
  0
LINE
  5
1A1
330
1F
100
AcDbEntity
  8
0
  6
Continuous
 62
     7
370
    15
100
AcDbLine
 10
402.4899451592
 20
178.7466862816
 30
0.0
 11
402.4899451592
 21
183.7466889638
 31
0.0
  0
LINE
  5
1A2
330
1F
100
AcDbEntity
  8
0
  6
Continuous
 62
     7
370
    15
100
AcDbLine
 10
402.4899451592
 20
183.7466889638
 30
0.0
 11
399.4899446674
 21
183.7466889638
 31
0.0
  0
LINE
  5
1A3
330
1F
100
AcDbEntity
  8
0
  6
Continuous
 62
     7
370
    15
100
AcDbLine
 10
399.4899446674
 20
183.7466889638
 30
0.0
 11
399.4899446674
 21
178.7466862816
 31
0.0
  0
LINE
  5
1A4
330
1F
100
AcDbEntity
  8
0
  6
Continuous
 62
     7
370
    15
100
AcDbLine
 10
455.1899450429
 20
153.7466877717
 30
0.0
 11
452.1899445512
 21
153.7466877717
 31
0.0
  0
LINE
  5
1A5
330
1F
100
AcDbEntity
  8
0
  6
Continuous
 62
     7
370
    15
100
AcDbLine
 10
452.1899445512
 20
153.7466877717
 30
0.0
 11
452.1899445512
 21
148.7466888148
 31
0.0
  0
LINE
  5
1A6
330
1F
100
AcDbEntity
  8
0
  6
Continuous
 62
     7
370
    15
100
AcDbLine
 10
452.1899445512
 20
148.7466888148
 30
0.0
 11
455.1899450429
 21
148.7466888148
 31
0.0
  0
LINE
  5
1A7
330
1F
100
AcDbEntity
  8
0
  6
Continuous
 62
     7
370
    15
100
AcDbLine
 10
455.1899450429
 20
148.7466888148
 30
0.0
 11
455.1899450429
 21
153.7466877717
 31
0.0
  0
LINE
  5
1A8
330
1F
100
AcDbEntity
  8
0
  6
Continuous
 62
     7
370
    15
100
AcDbLine
 10
399.4899446674
 20
173.7466873247
 30
0.0
 11
399.4899446674
 21
168.7466883678
 31
0.0
  0
LINE
  5
1A9
330
1F
100
AcDbEntity
  8
0
  6
Continuous
 62
     7
370
    15
100
AcDbLine
 10
399.4899446674
 20
168.7466883678
 30
0.0
 11
402.4899451592
 21
168.7466883678
 31
0.0
  0
LINE
  5
1AA
330
1F
100
AcDbEntity
  8
0
  6
Continuous
 62
     7
370
    15
100
AcDbLine
 10
402.4899451592
 20
168.7466883678
 30
0.0
 11
402.4899451592
 21
173.7466873247
 31
0.0
  0
LINE
  5
1AB
330
1F
100
AcDbEntity
  8
0
  6
Continuous
 62
     7
370
    15
100
AcDbLine
 10
402.4899451592
 20
173.7466873247
 30
0.0
 11
399.4899446674
 21
173.7466873247
 31
0.0
  0
LINE
  5
1AC
330
1F
100
AcDbEntity
  8
0
  6
Continuous
 62
     7
370
    15
100
AcDbLine
 10
399.4899446674
 20
163.7466894109
 30
0.0
 11
399.4899446674
 21
158.7466904539
 31
0.0
  0
LINE
  5
1AD
330
1F
100
AcDbEntity
  8
0
  6
Continuous
 62
     7
370
    15
100
AcDbLine
 10
399.4899446674
 20
158.7466904539
 30
0.0
 11
402.4899451592
 21
158.7466904539
 31
0.0
  0
LINE
  5
1AE
330
1F
100
AcDbEntity
  8
0
  6
Continuous
 62
     7
370
    15
100
AcDbLine
 10
402.4899451592
 20
158.7466904539
 30
0.0
 11
402.4899451592
 21
163.7466894109
 31
0.0
  0
LINE
  5
1AF
330
1F
100
AcDbEntity
  8
0
  6
Continuous
 62
     7
370
    15
100
AcDbLine
 10
402.4899451592
 20
163.7466894109
 30
0.0
 11
399.4899446674
 21
163.7466894109
 31
0.0
  0
LINE
  5
1B0
330
1F
100
AcDbEntity
  8
0
  6
Continuous
 62
     7
370
    15
100
AcDbLine
 10
399.4899446674
 20
153.7466877717
 30
0.0
 11
399.4899446674
 21
148.7466888148
 31
0.0
  0
LINE
  5
1B1
330
1F
100
AcDbEntity
  8
0
  6
Continuous
 62
     7
370
    15
100
AcDbLine
 10
399.4899446674
 20
148.7466888148
 30
0.0
 11
402.4899451592
 21
148.7466888148
 31
0.0
  0
LINE
  5
1B2
330
1F
100
AcDbEntity
  8
0
  6
Continuous
 62
     7
370
    15
100
AcDbLine
 10
402.4899451592
 20
148.7466888148
 30
0.0
 11
402.4899451592
 21
153.7466877717
 31
0.0
  0
LINE
  5
1B3
330
1F
100
AcDbEntity
  8
0
  6
Continuous
 62
     7
370
    15
100
AcDbLine
 10
402.4899451592
 20
153.7466877717
 30
0.0
 11
399.4899446674
 21
153.7466877717
 31
0.0
  0
LINE
  5
1B4
330
1F
100
AcDbEntity
  8
0
  6
Continuous
 62
     7
370
    15
100
AcDbLine
 10
455.1899450429
 20
163.7466894109
 30
0.0
 11
452.1899445512
 21
163.7466894109
 31
0.0
  0
LINE
  5
1B5
330
1F
100
AcDbEntity
  8
0
  6
Continuous
 62
     7
370
    15
100
AcDbLine
 10
452.1899445512
 20
163.7466894109
 30
0.0
 11
452.1899445512
 21
158.7466904539
 31
0.0
  0
LINE
  5
1B6
330
1F
100
AcDbEntity
  8
0
  6
Continuous
 62
     7
370
    15
100
AcDbLine
 10
452.1899445512
 20
158.7466904539
 30
0.0
 11
455.1899450429
 21
158.7466904539
 31
0.0
  0
LINE
  5
1B7
330
1F
100
AcDbEntity
  8
0
  6
Continuous
 62
     7
370
    15
100
AcDbLine
 10
455.1899450429
 20
158.7466904539
 30
0.0
 11
455.1899450429
 21
163.7466894109
 31
0.0
  0
LINE
  5
1B8
330
1F
100
AcDbEntity
  8
0
  6
Continuous
 62
     7
370
    15
100
AcDbLine
 10
455.1899450429
 20
173.7466873247
 30
0.0
 11
452.1899445512
 21
173.7466873247
 31
0.0
  0
LINE
  5
1B9
330
1F
100
AcDbEntity
  8
0
  6
Continuous
 62
     7
370
    15
100
AcDbLine
 10
452.1899445512
 20
173.7466873247
 30
0.0
 11
452.1899445512
 21
168.7466883678
 31
0.0
  0
LINE
  5
1BA
330
1F
100
AcDbEntity
  8
0
  6
Continuous
 62
     7
370
    15
100
AcDbLine
 10
452.1899445512
 20
168.7466883678
 30
0.0
 11
455.1899450429
 21
168.7466883678
 31
0.0
  0
LINE
  5
1BB
330
1F
100
AcDbEntity
  8
0
  6
Continuous
 62
     7
370
    15
100
AcDbLine
 10
455.1899450429
 20
168.7466883678
 30
0.0
 11
455.1899450429
 21
173.7466873247
 31
0.0
  0
LINE
  5
1BC
330
1F
100
AcDbEntity
  8
0
  6
Continuous
 62
     7
370
    15
100
AcDbLine
 10
455.1899450429
 20
183.7466889638
 30
0.0
 11
452.1899445512
 21
183.7466889638
 31
0.0
  0
LINE
  5
1BD
330
1F
100
AcDbEntity
  8
0
  6
Continuous
 62
     7
370
    15
100
AcDbLine
 10
452.1899445512
 20
183.7466889638
 30
0.0
 11
452.1899445512
 21
178.7466862816
 31
0.0
  0
LINE
  5
1BE
330
1F
100
AcDbEntity
  8
0
  6
Continuous
 62
     7
370
    15
100
AcDbLine
 10
452.1899445512
 20
178.7466862816
 30
0.0
 11
455.1899450429
 21
178.7466862816
 31
0.0
  0
LINE
  5
1BF
330
1F
100
AcDbEntity
  8
0
  6
Continuous
 62
     7
370
    15
100
AcDbLine
 10
455.1899450429
 20
178.7466862816
 30
0.0
 11
455.1899450429
 21
183.7466889638
 31
0.0
  0
CIRCLE
  5
1C0
330
1F
100
AcDbEntity
  8
0
  6
Continuous
 62
     7
370
    15
100
AcDbCircle
 10
497.9776249836
 20
79.193112193
 30
0.0
 40
2.0
  0
LINE
  5
1C1
330
1F
100
AcDbEntity
  8
0
  6
Continuous
 62
     7
370
    15
100
AcDbLine
 10
576.560032187
 20
280.5063094155
 30
0.0
 11
573.5600335579
 21
280.5063094155
 31
0.0
  0
LINE
  5
1C2
330
1F
100
AcDbEntity
  8
0
  6
Continuous
 62
     7
370
    15
100
AcDbLine
 10
573.5600335579
 20
280.5063094155
 30
0.0
 11
573.5600335579
 21
270.506309639
 31
0.0
  0
LINE
  5
1C3
330
1F
100
AcDbEntity
  8
0
  6
Continuous
 62
     7
370
    15
100
AcDbLine
 10
573.5600335579
 20
270.506309639
 30
0.0
 11
576.560032187
 21
270.506309639
 31
0.0
  0
LINE
  5
1C4
330
1F
100
AcDbEntity
  8
0
  6
Continuous
 62
     7
370
    15
100
AcDbLine
 10
576.560032187
 20
270.506309639
 30
0.0
 11
576.560032187
 21
260.5063096297
 31
0.0
  0
LINE
  5
1C5
330
1F
100
AcDbEntity
  8
0
  6
Continuous
 62
     7
370
    15
100
AcDbLine
 10
576.560032187
 20
260.5063096297
 30
0.0
 11
573.5600335579
 21
260.5063096297
 31
0.0
  0
LINE
  5
1C6
330
1F
100
AcDbEntity
  8
0
  6
Continuous
 62
     7
370
    15
100
AcDbLine
 10
573.5600335579
 20
260.5063096297
 30
0.0
 11
573.5600335579
 21
250.5063091548
 31
0.0
  0
LINE
  5
1C7
330
1F
100
AcDbEntity
  8
0
  6
Continuous
 62
     7
370
    15
100
AcDbLine
 10
573.5600335579
 20
250.5063091548
 30
0.0
 11
576.560032187
 21
250.5063091548
 31
0.0
  0
LINE
  5
1C8
330
1F
100
AcDbEntity
  8
0
  6
Continuous
 62
     7
370
    15
100
AcDbLine
 10
576.560032187
 20
250.5063091548
 30
0.0
 11
576.560032187
 21
240.5063103096
 31
0.0
  0
LINE
  5
1C9
330
1F
100
AcDbEntity
  8
0
  6
Continuous
 62
     7
370
    15
100
AcDbLine
 10
576.560032187
 20
240.5063103096
 30
0.0
 11
573.5600335579
 21
240.5063103096
 31
0.0
  0
LINE
  5
1CA
330
1F
100
AcDbEntity
  8
0
  6
Continuous
 62
     7
370
    15
100
AcDbLine
 10
573.5600335579
 20
240.5063103096
 30
0.0
 11
573.5600335579
 21
230.5063105331
 31
0.0
  0
LINE
  5
1CB
330
1F
100
AcDbEntity
  8
0
  6
Continuous
 62
     7
370
    15
100
AcDbLine
 10
573.5600335579
 20
230.5063105331
 30
0.0
 11
576.560032187
 21
230.5063105331
 31
0.0
  0
LINE
  5
1CC
330
1F
100
AcDbEntity
  8
0
  6
Continuous
 62
     7
370
    15
100
AcDbLine
 10
576.560032187
 20
230.5063105331
 30
0.0
 11
576.560032187
 21
220.506308894
 31
0.0
  0
LINE
  5
1CD
330
1F
100
AcDbEntity
  8
0
  6
Continuous
 62
     7
370
    15
100
AcDbLine
 10
576.560032187
 20
220.506308894
 30
0.0
 11
244.5600261968
 21
220.506308894
 31
0.0
  0
LINE
  5
1CE
330
1F
100
AcDbEntity
  8
0
  6
Continuous
 62
     7
370
    15
100
AcDbLine
 10
244.5600261968
 20
220.506308894
 30
0.0
 11
244.5600261968
 21
290.506309192
 31
0.0
  0
LINE
  5
1CF
330
1F
100
AcDbEntity
  8
0
  6
Continuous
 62
     7
370
    15
100
AcDbLine
 10
244.5600261968
 20
290.506309192
 30
0.0
 11
576.560032187
 21
290.506309192
 31
0.0
  0
LINE
  5
1D0
330
1F
100
AcDbEntity
  8
0
  6
Continuous
 62
     7
370
    15
100
AcDbLine
 10
576.560032187
 20
290.506309192
 30
0.0
 11
576.560032187
 21
280.5063094155
 31
0.0
  0
LINE
  5
1D1
330
1F
100
AcDbEntity
  8
0
  6
Continuous
 62
     7
370
    15
100
AcDbLine
 10
506.560031889
 20
280.5063094155
 30
0.0
 11
506.560031889
 21
270.506309639
 31
0.0
  0
LINE
  5
1D2
330
1F
100
AcDbEntity
  8
0
  6
Continuous
 62
     7
370
    15
100
AcDbLine
 10
501.5600329321
 20
280.5063094155
 30
0.0
 11
506.560031889
 21
280.5063094155
 31
0.0
  0
LINE
  5
1D3
330
1F
100
AcDbEntity
  8
0
  6
Continuous
 62
     7
370
    15
100
AcDbLine
 10
501.5600329321
 20
270.506309639
 30
0.0
 11
501.5600329321
 21
280.5063094155
 31
0.0
  0
LINE
  5
1D4
330
1F
100
AcDbEntity
  8
0
  6
Continuous
 62
     7
370
    15
100
AcDbLine
 10
506.560031889
 20
270.506309639
 30
0.0
 11
501.5600329321
 21
270.506309639
 31
0.0
  0
LINE
  5
1D5
330
1F
100
AcDbEntity
  8
0
  6
Continuous
 62
     7
370
    15
100
AcDbLine
 10
381.5600356143
 20
280.5063094155
 30
0.0
 11
381.5600356143
 21
270.506309639
 31
0.0
  0
LINE
  5
1D6
330
1F
100
AcDbEntity
  8
0
  6
Continuous
 62
     7
370
    15
100
AcDbLine
 10
376.5600403827
 20
280.5063094155
 30
0.0
 11
381.5600356143
 21
280.5063094155
 31
0.0
  0
LINE
  5
1D7
330
1F
100
AcDbEntity
  8
0
  6
Continuous
 62
     7
370
    15
100
AcDbLine
 10
376.5600403827
 20
270.506309639
 30
0.0
 11
376.5600403827
 21
280.5063094155
 31
0.0
  0
LINE
  5
1D8
330
1F
100
AcDbEntity
  8
0
  6
Continuous
 62
     7
370
    15
100
AcDbLine
 10
381.5600356143
 20
270.506309639
 30
0.0
 11
376.5600403827
 21
270.506309639
 31
0.0
  0
LINE
  5
1D9
330
1F
100
AcDbEntity
  8
0
  6
Continuous
 62
     7
370
    15
100
AcDbLine
 10
306.5600326341
 20
280.5063094155
 30
0.0
 11
306.5600326341
 21
270.506309639
 31
0.0
  0
LINE
  5
1DA
330
1F
100
AcDbEntity
  8
0
  6
Continuous
 62
     7
370
    15
100
AcDbLine
 10
296.5600272697
 20
280.5063094155
 30
0.0
 11
306.5600326341
 21
280.5063094155
 31
0.0
  0
LINE
  5
1DB
330
1F
100
AcDbEntity
  8
0
  6
Continuous
 62
     7
370
    15
100
AcDbLine
 10
296.5600272697
 20
270.506309639
 30
0.0
 11
296.5600272697
 21
280.5063094155
 31
0.0
  0
LINE
  5
1DC
330
1F
100
AcDbEntity
  8
0
  6
Continuous
 62
     7
370
    15
100
AcDbLine
 10
306.5600326341
 20
270.506309639
 30
0.0
 11
296.5600272697
 21
270.506309639
 31
0.0
  0
LINE
  5
1DD
330
1F
100
AcDbEntity
  8
0
  6
Continuous
 62
     7
370
    15
100
AcDbLine
 10
441.5600305479
 20
280.5063094155
 30
0.0
 11
441.5600305479
 21
270.506309639
 31
0.0
  0
LINE
  5
1DE
330
1F
100
AcDbEntity
  8
0
  6
Continuous
 62
     7
370
    15
100
AcDbLine
 10
431.5600326341
 20
280.5063094155
 30
0.0
 11
441.5600305479
 21
280.5063094155
 31
0.0
  0
LINE
  5
1DF
330
1F
100
AcDbEntity
  8
0
  6
Continuous
 62
     7
370
    15
100
AcDbLine
 10
431.5600326341
 20
270.506309639
 30
0.0
 11
431.5600326341
 21
280.5063094155
 31
0.0
  0
LINE
  5
1E0
330
1F
100
AcDbEntity
  8
0
  6
Continuous
 62
     7
370
    15
100
AcDbLine
 10
441.5600305479
 20
270.506309639
 30
0.0
 11
431.5600326341
 21
270.506309639
 31
0.0
  0
LINE
  5
1E1
330
1F
100
AcDbEntity
  8
0
  6
Continuous
 62
     7
370
    15
100
AcDbLine
 10
296.5600272697
 20
240.5063103096
 30
0.0
 11
306.5600326341
 21
240.5063103096
 31
0.0
  0
LINE
  5
1E2
330
1F
100
AcDbEntity
  8
0
  6
Continuous
 62
     7
370
    15
100
AcDbLine
 10
296.5600272697
 20
230.5063105331
 30
0.0
 11
296.5600272697
 21
240.5063103096
 31
0.0
  0
LINE
  5
1E3
330
1F
100
AcDbEntity
  8
0
  6
Continuous
 62
     7
370
    15
100
AcDbLine
 10
306.5600326341
 20
230.5063105331
 30
0.0
 11
296.5600272697
 21
230.5063105331
 31
0.0
  0
LINE
  5
1E4
330
1F
100
AcDbEntity
  8
0
  6
Continuous
 62
     7
370
    15
100
AcDbLine
 10
306.5600326341
 20
240.5063103096
 30
0.0
 11
306.5600326341
 21
230.5063105331
 31
0.0
  0
LINE
  5
1E5
330
1F
100
AcDbEntity
  8
0
  6
Continuous
 62
     7
370
    15
100
AcDbLine
 10
376.5600403827
 20
240.5063103096
 30
0.0
 11
381.5600356143
 21
240.5063103096
 31
0.0
  0
LINE
  5
1E6
330
1F
100
AcDbEntity
  8
0
  6
Continuous
 62
     7
370
    15
100
AcDbLine
 10
376.5600403827
 20
230.5063105331
 30
0.0
 11
376.5600403827
 21
240.5063103096
 31
0.0
  0
LINE
  5
1E7
330
1F
100
AcDbEntity
  8
0
  6
Continuous
 62
     7
370
    15
100
AcDbLine
 10
381.5600356143
 20
230.5063105331
 30
0.0
 11
376.5600403827
 21
230.5063105331
 31
0.0
  0
LINE
  5
1E8
330
1F
100
AcDbEntity
  8
0
  6
Continuous
 62
     7
370
    15
100
AcDbLine
 10
381.5600356143
 20
240.5063103096
 30
0.0
 11
381.5600356143
 21
230.5063105331
 31
0.0
  0
LINE
  5
1E9
330
1F
100
AcDbEntity
  8
0
  6
Continuous
 62
     7
370
    15
100
AcDbLine
 10
431.5600326341
 20
240.5063103096
 30
0.0
 11
441.5600305479
 21
240.5063103096
 31
0.0
  0
LINE
  5
1EA
330
1F
100
AcDbEntity
  8
0
  6
Continuous
 62
     7
370
    15
100
AcDbLine
 10
431.5600326341
 20
230.5063105331
 30
0.0
 11
431.5600326341
 21
240.5063103096
 31
0.0
  0
LINE
  5
1EB
330
1F
100
AcDbEntity
  8
0
  6
Continuous
 62
     7
370
    15
100
AcDbLine
 10
441.5600305479
 20
230.5063105331
 30
0.0
 11
431.5600326341
 21
230.5063105331
 31
0.0
  0
LINE
  5
1EC
330
1F
100
AcDbEntity
  8
0
  6
Continuous
 62
     7
370
    15
100
AcDbLine
 10
441.5600305479
 20
240.5063103096
 30
0.0
 11
441.5600305479
 21
230.5063105331
 31
0.0
  0
LINE
  5
1ED
330
1F
100
AcDbEntity
  8
0
  6
Continuous
 62
     7
370
    15
100
AcDbLine
 10
431.5600326341
 20
260.5063096297
 30
0.0
 11
441.5600305479
 21
260.5063096297
 31
0.0
  0
LINE
  5
1EE
330
1F
100
AcDbEntity
  8
0
  6
Continuous
 62
     7
370
    15
100
AcDbLine
 10
431.5600326341
 20
250.5063091548
 30
0.0
 11
431.5600326341
 21
260.5063096297
 31
0.0
  0
LINE
  5
1EF
330
1F
100
AcDbEntity
  8
0
  6
Continuous
 62
     7
370
    15
100
AcDbLine
 10
441.5600305479
 20
250.5063091548
 30
0.0
 11
431.5600326341
 21
250.5063091548
 31
0.0
  0
LINE
  5
1F0
330
1F
100
AcDbEntity
  8
0
  6
Continuous
 62
     7
370
    15
100
AcDbLine
 10
441.5600305479
 20
260.5063096297
 30
0.0
 11
441.5600305479
 21
250.5063091548
 31
0.0
  0
LINE
  5
1F1
330
1F
100
AcDbEntity
  8
0
  6
Continuous
 62
     7
370
    15
100
AcDbLine
 10
296.5600272697
 20
260.5063096297
 30
0.0
 11
306.5600326341
 21
260.5063096297
 31
0.0
  0
LINE
  5
1F2
330
1F
100
AcDbEntity
  8
0
  6
Continuous
 62
     7
370
    15
100
AcDbLine
 10
296.5600272697
 20
250.5063091548
 30
0.0
 11
296.5600272697
 21
260.5063096297
 31
0.0
  0
LINE
  5
1F3
330
1F
100
AcDbEntity
  8
0
  6
Continuous
 62
     7
370
    15
100
AcDbLine
 10
306.5600326341
 20
250.5063091548
 30
0.0
 11
296.5600272697
 21
250.5063091548
 31
0.0
  0
LINE
  5
1F4
330
1F
100
AcDbEntity
  8
0
  6
Continuous
 62
     7
370
    15
100
AcDbLine
 10
306.5600326341
 20
260.5063096297
 30
0.0
 11
306.5600326341
 21
250.5063091548
 31
0.0
  0
LINE
  5
1F5
330
1F
100
AcDbEntity
  8
0
  6
Continuous
 62
     7
370
    15
100
AcDbLine
 10
376.5600403827
 20
260.5063096297
 30
0.0
 11
381.5600356143
 21
260.5063096297
 31
0.0
  0
LINE
  5
1F6
330
1F
100
AcDbEntity
  8
0
  6
Continuous
 62
     7
370
    15
100
AcDbLine
 10
376.5600403827
 20
250.5063091548
 30
0.0
 11
376.5600403827
 21
260.5063096297
 31
0.0
  0
LINE
  5
1F7
330
1F
100
AcDbEntity
  8
0
  6
Continuous
 62
     7
370
    15
100
AcDbLine
 10
381.5600356143
 20
250.5063091548
 30
0.0
 11
376.5600403827
 21
250.5063091548
 31
0.0
  0
LINE
  5
1F8
330
1F
100
AcDbEntity
  8
0
  6
Continuous
 62
     7
370
    15
100
AcDbLine
 10
381.5600356143
 20
260.5063096297
 30
0.0
 11
381.5600356143
 21
250.5063091548
 31
0.0
  0
LINE
  5
1F9
330
1F
100
AcDbEntity
  8
0
  6
Continuous
 62
     7
370
    15
100
AcDbLine
 10
501.5600329321
 20
240.5063103096
 30
0.0
 11
506.560031889
 21
240.5063103096
 31
0.0
  0
LINE
  5
1FA
330
1F
100
AcDbEntity
  8
0
  6
Continuous
 62
     7
370
    15
100
AcDbLine
 10
501.5600329321
 20
230.5063105331
 30
0.0
 11
501.5600329321
 21
240.5063103096
 31
0.0
  0
LINE
  5
1FB
330
1F
100
AcDbEntity
  8
0
  6
Continuous
 62
     7
370
    15
100
AcDbLine
 10
506.560031889
 20
230.5063105331
 30
0.0
 11
501.5600329321
 21
230.5063105331
 31
0.0
  0
LINE
  5
1FC
330
1F
100
AcDbEntity
  8
0
  6
Continuous
 62
     7
370
    15
100
AcDbLine
 10
506.560031889
 20
240.5063103096
 30
0.0
 11
506.560031889
 21
230.5063105331
 31
0.0
  0
LINE
  5
1FD
330
1F
100
AcDbEntity
  8
0
  6
Continuous
 62
     7
370
    15
100
AcDbLine
 10
501.5600329321
 20
260.5063096297
 30
0.0
 11
506.560031889
 21
260.5063096297
 31
0.0
  0
LINE
  5
1FE
330
1F
100
AcDbEntity
  8
0
  6
Continuous
 62
     7
370
    15
100
AcDbLine
 10
501.5600329321
 20
250.5063091548
 30
0.0
 11
501.5600329321
 21
260.5063096297
 31
0.0
  0
LINE
  5
1FF
330
1F
100
AcDbEntity
  8
0
  6
Continuous
 62
     7
370
    15
100
AcDbLine
 10
506.560031889
 20
250.5063091548
 30
0.0
 11
501.5600329321
 21
250.5063091548
 31
0.0
  0
LINE
  5
200
330
1F
100
AcDbEntity
  8
0
  6
Continuous
 62
     7
370
    15
100
AcDbLine
 10
506.560031889
 20
260.5063096297
 30
0.0
 11
506.560031889
 21
250.5063091548
 31
0.0
  0
LINE
  5
201
330
1F
100
AcDbEntity
  8
0
  6
Continuous
 62
     7
370
    15
100
AcDbLine
 10
251.5600254815
 20
270.506309639
 30
0.0
 11
251.5600254815
 21
280.5063094155
 31
0.0
  0
LINE
  5
202
330
1F
100
AcDbEntity
  8
0
  6
Continuous
 62
     7
370
    15
100
AcDbLine
 10
251.5600254815
 20
280.5063094155
 30
0.0
 11
246.5600302499
 21
280.5063094155
 31
0.0
  0
LINE
  5
203
330
1F
100
AcDbEntity
  8
0
  6
Continuous
 62
     7
370
    15
100
AcDbLine
 10
246.5600302499
 20
280.5063094155
 30
0.0
 11
246.5600302499
 21
270.506309639
 31
0.0
  0
LINE
  5
204
330
1F
100
AcDbEntity
  8
0
  6
Continuous
 62
     7
370
    15
100
AcDbLine
 10
246.5600302499
 20
270.506309639
 30
0.0
 11
251.5600254815
 21
270.506309639
 31
0.0
  0
LINE
  5
205
330
1F
100
AcDbEntity
  8
0
  6
Continuous
 62
     7
370
    15
100
AcDbLine
 10
251.5600254815
 20
250.5063091548
 30
0.0
 11
251.5600254815
 21
260.5063096297
 31
0.0
  0
LINE
  5
206
330
1F
100
AcDbEntity
  8
0
  6
Continuous
 62
     7
370
    15
100
AcDbLine
 10
251.5600254815
 20
260.5063096297
 30
0.0
 11
246.5600302499
 21
260.5063096297
 31
0.0
  0
LINE
  5
207
330
1F
100
AcDbEntity
  8
0
  6
Continuous
 62
     7
370
    15
100
AcDbLine
 10
246.5600302499
 20
260.5063096297
 30
0.0
 11
246.5600302499
 21
250.5063091548
 31
0.0
  0
LINE
  5
208
330
1F
100
AcDbEntity
  8
0
  6
Continuous
 62
     7
370
    15
100
AcDbLine
 10
246.5600302499
 20
250.5063091548
 30
0.0
 11
251.5600254815
 21
250.5063091548
 31
0.0
  0
LINE
  5
209
330
1F
100
AcDbEntity
  8
0
  6
Continuous
 62
     7
370
    15
100
AcDbLine
 10
251.5600254815
 20
230.5063105331
 30
0.0
 11
251.5600254815
 21
240.5063103096
 31
0.0
  0
LINE
  5
20A
330
1F
100
AcDbEntity
  8
0
  6
Continuous
 62
     7
370
    15
100
AcDbLine
 10
251.5600254815
 20
240.5063103096
 30
0.0
 11
246.5600302499
 21
240.5063103096
 31
0.0
  0
LINE
  5
20B
330
1F
100
AcDbEntity
  8
0
  6
Continuous
 62
     7
370
    15
100
AcDbLine
 10
246.5600302499
 20
240.5063103096
 30
0.0
 11
246.5600302499
 21
230.5063105331
 31
0.0
  0
LINE
  5
20C
330
1F
100
AcDbEntity
  8
0
  6
Continuous
 62
     7
370
    15
100
AcDbLine
 10
246.5600302499
 20
230.5063105331
 30
0.0
 11
251.5600254815
 21
230.5063105331
 31
0.0
  0
LINE
  5
20D
330
1F
100
AcDbEntity
  8
0
  6
Continuous
 62
     7
370
    15
100
AcDbLine
 10
552.3300334867
 20
258.0063094528
 30
0.0
 11
557.330033375
 21
258.0063094528
 31
0.0
  0
LINE
  5
20E
330
1F
100
AcDbEntity
  8
0
  6
Continuous
 62
     7
370
    15
100
AcDbLine
 10
552.3300334867
 20
253.0063095645
 30
0.0
 11
552.3300334867
 21
258.0063094528
 31
0.0
  0
LINE
  5
20F
330
1F
100
AcDbEntity
  8
0
  6
Continuous
 62
     7
370
    15
100
AcDbLine
 10
557.330033375
 20
253.0063095645
 30
0.0
 11
552.3300334867
 21
253.0063095645
 31
0.0
  0
LINE
  5
210
330
1F
100
AcDbEntity
  8
0
  6
Continuous
 62
     7
370
    15
100
AcDbLine
 10
557.330033375
 20
258.0063094528
 30
0.0
 11
557.330033375
 21
253.0063095645
 31
0.0
  0
LINE
  5
211
330
1F
100
AcDbEntity
  8
0
  6
Continuous
 62
     7
370
    15
100
AcDbLine
 10
576.5219038843
 20
357.3343709218
 30
0.0
 11
573.5219052552
 21
357.3343709218
 31
0.0
  0
LINE
  5
212
330
1F
100
AcDbEntity
  8
0
  6
Continuous
 62
     7
370
    15
100
AcDbLine
 10
573.5219052552
 20
357.3343709218
 30
0.0
 11
573.5219052552
 21
347.3343711453
 31
0.0
  0
LINE
  5
213
330
1F
100
AcDbEntity
  8
0
  6
Continuous
 62
     7
370
    15
100
AcDbLine
 10
573.5219052552
 20
347.3343711453
 30
0.0
 11
576.5219038843
 21
347.3343711453
 31
0.0
  0
LINE
  5
214
330
1F
100
AcDbEntity
  8
0
  6
Continuous
 62
     7
370
    15
100
AcDbLine
 10
576.5219038843
 20
347.3343711453
 30
0.0
 11
576.5219038843
 21
337.334371136
 31
0.0
  0
LINE
  5
215
330
1F
100
AcDbEntity
  8
0
  6
Continuous
 62
     7
370
    15
100
AcDbLine
 10
576.5219038843
 20
337.334371136
 30
0.0
 11
573.5219052552
 21
337.334371136
 31
0.0
  0
LINE
  5
216
330
1F
100
AcDbEntity
  8
0
  6
Continuous
 62
     7
370
    15
100
AcDbLine
 10
573.5219052552
 20
337.334371136
 30
0.0
 11
573.5219052552
 21
327.334370661
 31
0.0
  0
LINE
  5
217
330
1F
100
AcDbEntity
  8
0
  6
Continuous
 62
     7
370
    15
100
AcDbLine
 10
573.5219052552
 20
327.334370661
 30
0.0
 11
576.5219038843
 21
327.334370661
 31
0.0
  0
LINE
  5
218
330
1F
100
AcDbEntity
  8
0
  6
Continuous
 62
     7
370
    15
100
AcDbLine
 10
576.5219038843
 20
327.334370661
 30
0.0
 11
576.5219038843
 21
317.3343718159
 31
0.0
  0
LINE
  5
219
330
1F
100
AcDbEntity
  8
0
  6
Continuous
 62
     7
370
    15
100
AcDbLine
 10
576.5219038843
 20
317.3343718159
 30
0.0
 11
573.5219052552
 21
317.3343718159
 31
0.0
  0
LINE
  5
21A
330
1F
100
AcDbEntity
  8
0
  6
Continuous
 62
     7
370
    15
100
AcDbLine
 10
573.5219052552
 20
317.3343718159
 30
0.0
 11
573.5219052552
 21
307.3343720394
 31
0.0
  0
LINE
  5
21B
330
1F
100
AcDbEntity
  8
0
  6
Continuous
 62
     7
370
    15
100
AcDbLine
 10
573.5219052552
 20
307.3343720394
 30
0.0
 11
576.5219038843
 21
307.3343720394
 31
0.0
  0
LINE
  5
21C
330
1F
100
AcDbEntity
  8
0
  6
Continuous
 62
     7
370
    15
100
AcDbLine
 10
576.5219038843
 20
307.3343720394
 30
0.0
 11
576.5219038843
 21
297.3343704003
 31
0.0
  0
LINE
  5
21D
330
1F
100
AcDbEntity
  8
0
  6
Continuous
 62
     7
370
    15
100
AcDbLine
 10
576.5219038843
 20
297.3343704003
 30
0.0
 11
244.521897894
 21
297.3343704003
 31
0.0
  0
LINE
  5
21E
330
1F
100
AcDbEntity
  8
0
  6
Continuous
 62
     7
370
    15
100
AcDbLine
 10
244.521897894
 20
297.3343704003
 30
0.0
 11
244.521897894
 21
367.3343706983
 31
0.0
  0
LINE
  5
21F
330
1F
100
AcDbEntity
  8
0
  6
Continuous
 62
     7
370
    15
100
AcDbLine
 10
244.521897894
 20
367.3343706983
 30
0.0
 11
576.5219038843
 21
367.3343706983
 31
0.0
  0
LINE
  5
220
330
1F
100
AcDbEntity
  8
0
  6
Continuous
 62
     7
370
    15
100
AcDbLine
 10
576.5219038843
 20
367.3343706983
 30
0.0
 11
576.5219038843
 21
357.3343709218
 31
0.0
  0
LINE
  5
221
330
1F
100
AcDbEntity
  8
0
  6
Continuous
 62
     7
370
    15
100
AcDbLine
 10
506.5219035862
 20
357.3343709218
 30
0.0
 11
506.5219035862
 21
347.3343711453
 31
0.0
  0
LINE
  5
222
330
1F
100
AcDbEntity
  8
0
  6
Continuous
 62
     7
370
    15
100
AcDbLine
 10
501.5219046293
 20
357.3343709218
 30
0.0
 11
506.5219035862
 21
357.3343709218
 31
0.0
  0
LINE
  5
223
330
1F
100
AcDbEntity
  8
0
  6
Continuous
 62
     7
370
    15
100
AcDbLine
 10
501.5219046293
 20
347.3343711453
 30
0.0
 11
501.5219046293
 21
357.3343709218
 31
0.0
  0
LINE
  5
224
330
1F
100
AcDbEntity
  8
0
  6
Continuous
 62
     7
370
    15
100
AcDbLine
 10
506.5219035862
 20
347.3343711453
 30
0.0
 11
501.5219046293
 21
347.3343711453
 31
0.0
  0
LINE
  5
225
330
1F
100
AcDbEntity
  8
0
  6
Continuous
 62
     7
370
    15
100
AcDbLine
 10
381.5219073115
 20
357.3343709218
 30
0.0
 11
381.5219073115
 21
347.3343711453
 31
0.0
  0
LINE
  5
226
330
1F
100
AcDbEntity
  8
0
  6
Continuous
 62
     7
370
    15
100
AcDbLine
 10
376.5219120799
 20
357.3343709218
 30
0.0
 11
381.5219073115
 21
357.3343709218
 31
0.0
  0
LINE
  5
227
330
1F
100
AcDbEntity
  8
0
  6
Continuous
 62
     7
370
    15
100
AcDbLine
 10
376.5219120799
 20
347.3343711453
 30
0.0
 11
376.5219120799
 21
357.3343709218
 31
0.0
  0
LINE
  5
228
330
1F
100
AcDbEntity
  8
0
  6
Continuous
 62
     7
370
    15
100
AcDbLine
 10
381.5219073115
 20
347.3343711453
 30
0.0
 11
376.5219120799
 21
347.3343711453
 31
0.0
  0
LINE
  5
229
330
1F
100
AcDbEntity
  8
0
  6
Continuous
 62
     7
370
    15
100
AcDbLine
 10
306.5219043313
 20
357.3343709218
 30
0.0
 11
306.5219043313
 21
347.3343711453
 31
0.0
  0
LINE
  5
22A
330
1F
100
AcDbEntity
  8
0
  6
Continuous
 62
     7
370
    15
100
AcDbLine
 10
296.5218989669
 20
357.3343709218
 30
0.0
 11
306.5219043313
 21
357.3343709218
 31
0.0
  0
LINE
  5
22B
330
1F
100
AcDbEntity
  8
0
  6
Continuous
 62
     7
370
    15
100
AcDbLine
 10
296.5218989669
 20
347.3343711453
 30
0.0
 11
296.5218989669
 21
357.3343709218
 31
0.0
  0
LINE
  5
22C
330
1F
100
AcDbEntity
  8
0
  6
Continuous
 62
     7
370
    15
100
AcDbLine
 10
306.5219043313
 20
347.3343711453
 30
0.0
 11
296.5218989669
 21
347.3343711453
 31
0.0
  0
LINE
  5
22D
330
1F
100
AcDbEntity
  8
0
  6
Continuous
 62
     7
370
    15
100
AcDbLine
 10
441.5219022451
 20
357.3343709218
 30
0.0
 11
441.5219022451
 21
347.3343711453
 31
0.0
  0
LINE
  5
22E
330
1F
100
AcDbEntity
  8
0
  6
Continuous
 62
     7
370
    15
100
AcDbLine
 10
431.5219043313
 20
357.3343709218
 30
0.0
 11
441.5219022451
 21
357.3343709218
 31
0.0
  0
LINE
  5
22F
330
1F
100
AcDbEntity
  8
0
  6
Continuous
 62
     7
370
    15
100
AcDbLine
 10
431.5219043313
 20
347.3343711453
 30
0.0
 11
431.5219043313
 21
357.3343709218
 31
0.0
  0
LINE
  5
230
330
1F
100
AcDbEntity
  8
0
  6
Continuous
 62
     7
370
    15
100
AcDbLine
 10
441.5219022451
 20
347.3343711453
 30
0.0
 11
431.5219043313
 21
347.3343711453
 31
0.0
  0
LINE
  5
231
330
1F
100
AcDbEntity
  8
0
  6
Continuous
 62
     7
370
    15
100
AcDbLine
 10
296.5218989669
 20
317.3343718159
 30
0.0
 11
306.5219043313
 21
317.3343718159
 31
0.0
  0
LINE
  5
232
330
1F
100
AcDbEntity
  8
0
  6
Continuous
 62
     7
370
    15
100
AcDbLine
 10
296.5218989669
 20
307.3343720394
 30
0.0
 11
296.5218989669
 21
317.3343718159
 31
0.0
  0
LINE
  5
233
330
1F
100
AcDbEntity
  8
0
  6
Continuous
 62
     7
370
    15
100
AcDbLine
 10
306.5219043313
 20
307.3343720394
 30
0.0
 11
296.5218989669
 21
307.3343720394
 31
0.0
  0
LINE
  5
234
330
1F
100
AcDbEntity
  8
0
  6
Continuous
 62
     7
370
    15
100
AcDbLine
 10
306.5219043313
 20
317.3343718159
 30
0.0
 11
306.5219043313
 21
307.3343720394
 31
0.0
  0
LINE
  5
235
330
1F
100
AcDbEntity
  8
0
  6
Continuous
 62
     7
370
    15
100
AcDbLine
 10
376.5219120799
 20
317.3343718159
 30
0.0
 11
381.5219073115
 21
317.3343718159
 31
0.0
  0
LINE
  5
236
330
1F
100
AcDbEntity
  8
0
  6
Continuous
 62
     7
370
    15
100
AcDbLine
 10
376.5219120799
 20
307.3343720394
 30
0.0
 11
376.5219120799
 21
317.3343718159
 31
0.0
  0
LINE
  5
237
330
1F
100
AcDbEntity
  8
0
  6
Continuous
 62
     7
370
    15
100
AcDbLine
 10
381.5219073115
 20
307.3343720394
 30
0.0
 11
376.5219120799
 21
307.3343720394
 31
0.0
  0
LINE
  5
238
330
1F
100
AcDbEntity
  8
0
  6
Continuous
 62
     7
370
    15
100
AcDbLine
 10
381.5219073115
 20
317.3343718159
 30
0.0
 11
381.5219073115
 21
307.3343720394
 31
0.0
  0
LINE
  5
239
330
1F
100
AcDbEntity
  8
0
  6
Continuous
 62
     7
370
    15
100
AcDbLine
 10
431.5219043313
 20
317.3343718159
 30
0.0
 11
441.5219022451
 21
317.3343718159
 31
0.0
  0
LINE
  5
23A
330
1F
100
AcDbEntity
  8
0
  6
Continuous
 62
     7
370
    15
100
AcDbLine
 10
431.5219043313
 20
307.3343720394
 30
0.0
 11
431.5219043313
 21
317.3343718159
 31
0.0
  0
LINE
  5
23B
330
1F
100
AcDbEntity
  8
0
  6
Continuous
 62
     7
370
    15
100
AcDbLine
 10
441.5219022451
 20
307.3343720394
 30
0.0
 11
431.5219043313
 21
307.3343720394
 31
0.0
  0
LINE
  5
23C
330
1F
100
AcDbEntity
  8
0
  6
Continuous
 62
     7
370
    15
100
AcDbLine
 10
441.5219022451
 20
317.3343718159
 30
0.0
 11
441.5219022451
 21
307.3343720394
 31
0.0
  0
LINE
  5
23D
330
1F
100
AcDbEntity
  8
0
  6
Continuous
 62
     7
370
    15
100
AcDbLine
 10
431.5219043313
 20
337.334371136
 30
0.0
 11
441.5219022451
 21
337.334371136
 31
0.0
  0
LINE
  5
23E
330
1F
100
AcDbEntity
  8
0
  6
Continuous
 62
     7
370
    15
100
AcDbLine
 10
431.5219043313
 20
327.334370661
 30
0.0
 11
431.5219043313
 21
337.334371136
 31
0.0
  0
LINE
  5
23F
330
1F
100
AcDbEntity
  8
0
  6
Continuous
 62
     7
370
    15
100
AcDbLine
 10
441.5219022451
 20
327.334370661
 30
0.0
 11
431.5219043313
 21
327.334370661
 31
0.0
  0
LINE
  5
240
330
1F
100
AcDbEntity
  8
0
  6
Continuous
 62
     7
370
    15
100
AcDbLine
 10
441.5219022451
 20
337.334371136
 30
0.0
 11
441.5219022451
 21
327.334370661
 31
0.0
  0
LINE
  5
241
330
1F
100
AcDbEntity
  8
0
  6
Continuous
 62
     7
370
    15
100
AcDbLine
 10
296.5218989669
 20
337.334371136
 30
0.0
 11
306.5219043313
 21
337.334371136
 31
0.0
  0
LINE
  5
242
330
1F
100
AcDbEntity
  8
0
  6
Continuous
 62
     7
370
    15
100
AcDbLine
 10
296.5218989669
 20
327.334370661
 30
0.0
 11
296.5218989669
 21
337.334371136
 31
0.0
  0
LINE
  5
243
330
1F
100
AcDbEntity
  8
0
  6
Continuous
 62
     7
370
    15
100
AcDbLine
 10
306.5219043313
 20
327.334370661
 30
0.0
 11
296.5218989669
 21
327.334370661
 31
0.0
  0
LINE
  5
244
330
1F
100
AcDbEntity
  8
0
  6
Continuous
 62
     7
370
    15
100
AcDbLine
 10
306.5219043313
 20
337.334371136
 30
0.0
 11
306.5219043313
 21
327.334370661
 31
0.0
  0
LINE
  5
245
330
1F
100
AcDbEntity
  8
0
  6
Continuous
 62
     7
370
    15
100
AcDbLine
 10
376.5219120799
 20
337.334371136
 30
0.0
 11
381.5219073115
 21
337.334371136
 31
0.0
  0
LINE
  5
246
330
1F
100
AcDbEntity
  8
0
  6
Continuous
 62
     7
370
    15
100
AcDbLine
 10
376.5219120799
 20
327.334370661
 30
0.0
 11
376.5219120799
 21
337.334371136
 31
0.0
  0
LINE
  5
247
330
1F
100
AcDbEntity
  8
0
  6
Continuous
 62
     7
370
    15
100
AcDbLine
 10
381.5219073115
 20
327.334370661
 30
0.0
 11
376.5219120799
 21
327.334370661
 31
0.0
  0
LINE
  5
248
330
1F
100
AcDbEntity
  8
0
  6
Continuous
 62
     7
370
    15
100
AcDbLine
 10
381.5219073115
 20
337.334371136
 30
0.0
 11
381.5219073115
 21
327.334370661
 31
0.0
  0
LINE
  5
249
330
1F
100
AcDbEntity
  8
0
  6
Continuous
 62
     7
370
    15
100
AcDbLine
 10
501.5219046293
 20
317.3343718159
 30
0.0
 11
506.5219035862
 21
317.3343718159
 31
0.0
  0
LINE
  5
24A
330
1F
100
AcDbEntity
  8
0
  6
Continuous
 62
     7
370
    15
100
AcDbLine
 10
501.5219046293
 20
307.3343720394
 30
0.0
 11
501.5219046293
 21
317.3343718159
 31
0.0
  0
LINE
  5
24B
330
1F
100
AcDbEntity
  8
0
  6
Continuous
 62
     7
370
    15
100
AcDbLine
 10
506.5219035862
 20
307.3343720394
 30
0.0
 11
501.5219046293
 21
307.3343720394
 31
0.0
  0
LINE
  5
24C
330
1F
100
AcDbEntity
  8
0
  6
Continuous
 62
     7
370
    15
100
AcDbLine
 10
506.5219035862
 20
317.3343718159
 30
0.0
 11
506.5219035862
 21
307.3343720394
 31
0.0
  0
LINE
  5
24D
330
1F
100
AcDbEntity
  8
0
  6
Continuous
 62
     7
370
    15
100
AcDbLine
 10
501.5219046293
 20
337.334371136
 30
0.0
 11
506.5219035862
 21
337.334371136
 31
0.0
  0
LINE
  5
24E
330
1F
100
AcDbEntity
  8
0
  6
Continuous
 62
     7
370
    15
100
AcDbLine
 10
501.5219046293
 20
327.334370661
 30
0.0
 11
501.5219046293
 21
337.334371136
 31
0.0
  0
LINE
  5
24F
330
1F
100
AcDbEntity
  8
0
  6
Continuous
 62
     7
370
    15
100
AcDbLine
 10
506.5219035862
 20
327.334370661
 30
0.0
 11
501.5219046293
 21
327.334370661
 31
0.0
  0
LINE
  5
250
330
1F
100
AcDbEntity
  8
0
  6
Continuous
 62
     7
370
    15
100
AcDbLine
 10
506.5219035862
 20
337.334371136
 30
0.0
 11
506.5219035862
 21
327.334370661
 31
0.0
  0
LINE
  5
251
330
1F
100
AcDbEntity
  8
0
  6
Continuous
 62
     7
370
    15
100
AcDbLine
 10
251.5218971787
 20
347.3343711453
 30
0.0
 11
251.5218971787
 21
357.3343709218
 31
0.0
  0
LINE
  5
252
330
1F
100
AcDbEntity
  8
0
  6
Continuous
 62
     7
370
    15
100
AcDbLine
 10
251.5218971787
 20
357.3343709218
 30
0.0
 11
246.5219019471
 21
357.3343709218
 31
0.0
  0
LINE
  5
253
330
1F
100
AcDbEntity
  8
0
  6
Continuous
 62
     7
370
    15
100
AcDbLine
 10
246.5219019471
 20
357.3343709218
 30
0.0
 11
246.5219019471
 21
347.3343711453
 31
0.0
  0
LINE
  5
254
330
1F
100
AcDbEntity
  8
0
  6
Continuous
 62
     7
370
    15
100
AcDbLine
 10
246.5219019471
 20
347.3343711453
 30
0.0
 11
251.5218971787
 21
347.3343711453
 31
0.0
  0
LINE
  5
255
330
1F
100
AcDbEntity
  8
0
  6
Continuous
 62
     7
370
    15
100
AcDbLine
 10
251.5218971787
 20
327.334370661
 30
0.0
 11
251.5218971787
 21
337.334371136
 31
0.0
  0
LINE
  5
256
330
1F
100
AcDbEntity
  8
0
  6
Continuous
 62
     7
370
    15
100
AcDbLine
 10
251.5218971787
 20
337.334371136
 30
0.0
 11
246.5219019471
 21
337.334371136
 31
0.0
  0
LINE
  5
257
330
1F
100
AcDbEntity
  8
0
  6
Continuous
 62
     7
370
    15
100
AcDbLine
 10
246.5219019471
 20
337.334371136
 30
0.0
 11
246.5219019471
 21
327.334370661
 31
0.0
  0
LINE
  5
258
330
1F
100
AcDbEntity
  8
0
  6
Continuous
 62
     7
370
    15
100
AcDbLine
 10
246.5219019471
 20
327.334370661
 30
0.0
 11
251.5218971787
 21
327.334370661
 31
0.0
  0
LINE
  5
259
330
1F
100
AcDbEntity
  8
0
  6
Continuous
 62
     7
370
    15
100
AcDbLine
 10
251.5218971787
 20
307.3343720394
 30
0.0
 11
251.5218971787
 21
317.3343718159
 31
0.0
  0
LINE
  5
25A
330
1F
100
AcDbEntity
  8
0
  6
Continuous
 62
     7
370
    15
100
AcDbLine
 10
251.5218971787
 20
317.3343718159
 30
0.0
 11
246.5219019471
 21
317.3343718159
 31
0.0
  0
LINE
  5
25B
330
1F
100
AcDbEntity
  8
0
  6
Continuous
 62
     7
370
    15
100
AcDbLine
 10
246.5219019471
 20
317.3343718159
 30
0.0
 11
246.5219019471
 21
307.3343720394
 31
0.0
  0
LINE
  5
25C
330
1F
100
AcDbEntity
  8
0
  6
Continuous
 62
     7
370
    15
100
AcDbLine
 10
246.5219019471
 20
307.3343720394
 30
0.0
 11
251.5218971787
 21
307.3343720394
 31
0.0
  0
LINE
  5
25D
330
1F
100
AcDbEntity
  8
0
  6
Continuous
 62
     7
370
    15
100
AcDbLine
 10
552.2919051839
 20
334.8343709591
 30
0.0
 11
557.2919050722
 21
334.8343709591
 31
0.0
  0
LINE
  5
25E
330
1F
100
AcDbEntity
  8
0
  6
Continuous
 62
     7
370
    15
100
AcDbLine
 10
552.2919051839
 20
329.8343710708
 30
0.0
 11
552.2919051839
 21
334.8343709591
 31
0.0
  0
LINE
  5
25F
330
1F
100
AcDbEntity
  8
0
  6
Continuous
 62
     7
370
    15
100
AcDbLine
 10
557.2919050722
 20
329.8343710708
 30
0.0
 11
552.2919051839
 21
329.8343710708
 31
0.0
  0
LINE
  5
260
330
1F
100
AcDbEntity
  8
0
  6
Continuous
 62
     7
370
    15
100
AcDbLine
 10
557.2919050722
 20
334.8343709591
 30
0.0
 11
557.2919050722
 21
329.8343710708
 31
0.0
  0
LINE
  5
261
330
1F
100
AcDbEntity
  8
0
  6
Continuous
 62
     7
370
    15
100
AcDbLine
 10
283.5284635213
 20
105.015361082
 30
0.0
 11
288.5284624782
 21
105.015361082
 31
0.0
  0
LINE
  5
262
330
1F
100
AcDbEntity
  8
0
  6
Continuous
 62
     7
370
    15
100
AcDbLine
 10
288.5284624782
 20
105.015361082
 30
0.0
 11
288.5284624782
 21
108.0153606425
 31
0.0
  0
LINE
  5
263
330
1F
100
AcDbEntity
  8
0
  6
Continuous
 62
     7
370
    15
100
AcDbLine
 10
288.5284624782
 20
108.0153606425
 30
0.0
 11
283.5284635213
 21
108.0153606425
 31
0.0
  0
LINE
  5
264
330
1F
100
AcDbEntity
  8
0
  6
Continuous
 62
     7
370
    15
100
AcDbLine
 10
283.5284635213
 20
108.0153606425
 30
0.0
 11
283.5284635213
 21
105.015361082
 31
0.0
  0
LINE
  5
265
330
1F
100
AcDbEntity
  8
0
  6
Continuous
 62
     7
370
    15
100
AcDbLine
 10
288.5284624782
 20
115.0153617899
 30
0.0
 11
288.5284624782
 21
118.0153604189
 31
0.0
  0
LINE
  5
266
330
1F
100
AcDbEntity
  8
0
  6
Continuous
 62
     7
370
    15
100
AcDbLine
 10
288.5284624782
 20
118.0153604189
 30
0.0
 11
283.5284635213
 21
118.0153604189
 31
0.0
  0
LINE
  5
267
330
1F
100
AcDbEntity
  8
0
  6
Continuous
 62
     7
370
    15
100
AcDbLine
 10
283.5284635213
 20
118.0153604189
 30
0.0
 11
283.5284635213
 21
115.0153617899
 31
0.0
  0
LINE
  5
268
330
1F
100
AcDbEntity
  8
0
  6
Continuous
 62
     7
370
    15
100
AcDbLine
 10
283.5284635213
 20
115.0153617899
 30
0.0
 11
288.5284624782
 21
115.0153617899
 31
0.0
  0
LINE
  5
269
330
1F
100
AcDbEntity
  8
0
  6
Continuous
 62
     7
370
    15
100
AcDbLine
 10
315.7284609762
 20
123.0153612385
 30
0.0
 11
310.7284620192
 21
123.0153612385
 31
0.0
  0
LINE
  5
26A
330
1F
100
AcDbEntity
  8
0
  6
Continuous
 62
     7
370
    15
100
AcDbLine
 10
310.7284620192
 20
123.0153612385
 30
0.0
 11
310.7284620192
 21
120.0153607468
 31
0.0
  0
LINE
  5
26B
330
1F
100
AcDbEntity
  8
0
  6
Continuous
 62
     7
370
    15
100
AcDbLine
 10
310.7284620192
 20
120.0153607468
 30
0.0
 11
315.7284609762
 21
120.0153607468
 31
0.0
  0
LINE
  5
26C
330
1F
100
AcDbEntity
  8
0
  6
Continuous
 62
     7
370
    15
100
AcDbLine
 10
315.7284609762
 20
120.0153607468
 30
0.0
 11
315.7284609762
 21
123.0153612385
 31
0.0
  0
LINE
  5
26D
330
1F
100
AcDbEntity
  8
0
  6
Continuous
 62
     7
370
    15
100
AcDbLine
 10
315.7284609762
 20
115.0153617899
 30
0.0
 11
315.7284609762
 21
118.0153604189
 31
0.0
  0
LINE
  5
26E
330
1F
100
AcDbEntity
  8
0
  6
Continuous
 62
     7
370
    15
100
AcDbLine
 10
315.7284609762
 20
118.0153604189
 30
0.0
 11
310.7284620192
 21
118.0153604189
 31
0.0
  0
LINE
  5
26F
330
1F
100
AcDbEntity
  8
0
  6
Continuous
 62
     7
370
    15
100
AcDbLine
 10
310.7284620192
 20
118.0153604189
 30
0.0
 11
310.7284620192
 21
118.2653609256
 31
0.0
  0
LINE
  5
270
330
1F
100
AcDbEntity
  8
0
  6
Continuous
 62
     7
370
    15
100
AcDbLine
 10
310.7284620192
 20
118.2653609256
 30
0.0
 11
307.7284633901
 21
118.2653609256
 31
0.0
  0
LINE
  5
271
330
1F
100
AcDbEntity
  8
0
  6
Continuous
 62
     7
370
    15
100
AcDbLine
 10
307.7284633901
 20
118.2653609256
 30
0.0
 11
307.7284633901
 21
109.765361395
 31
0.0
  0
LINE
  5
272
330
1F
100
AcDbEntity
  8
0
  6
Continuous
 62
     7
370
    15
100
AcDbLine
 10
307.7284633901
 20
109.765361395
 30
0.0
 11
310.7284620192
 21
109.765361395
 31
0.0
  0
LINE
  5
273
330
1F
100
AcDbEntity
  8
0
  6
Continuous
 62
     7
370
    15
100
AcDbLine
 10
310.7284620192
 20
109.765361395
 30
0.0
 11
310.7284620192
 21
110.0153609703
 31
0.0
  0
LINE
  5
274
330
1F
100
AcDbEntity
  8
0
  6
Continuous
 62
     7
370
    15
100
AcDbLine
 10
310.7284620192
 20
110.0153609703
 30
0.0
 11
315.7284609762
 21
110.0153609703
 31
0.0
  0
LINE
  5
275
330
1F
100
AcDbEntity
  8
0
  6
Continuous
 62
     7
370
    15
100
AcDbLine
 10
315.7284609762
 20
110.0153609703
 30
0.0
 11
315.7284609762
 21
113.015361462
 31
0.0
  0
LINE
  5
276
330
1F
100
AcDbEntity
  8
0
  6
Continuous
 62
     7
370
    15
100
AcDbLine
 10
315.7284609762
 20
113.015361462
 30
0.0
 11
310.7284620192
 21
113.015361462
 31
0.0
  0
LINE
  5
277
330
1F
100
AcDbEntity
  8
0
  6
Continuous
 62
     7
370
    15
100
AcDbLine
 10
310.7284620192
 20
113.015361462
 30
0.0
 11
310.7284620192
 21
115.0153617899
 31
0.0
  0
LINE
  5
278
330
1F
100
AcDbEntity
  8
0
  6
Continuous
 62
     7
370
    15
100
AcDbLine
 10
310.7284620192
 20
115.0153617899
 30
0.0
 11
315.7284609762
 21
115.0153617899
 31
0.0
  0
CIRCLE
  5
279
330
1F
100
AcDbEntity
  8
0
  6
Continuous
 62
     7
370
    15
100
AcDbCircle
 10
326.6284628299
 20
114.0153610299
 30
0.0
 40
1.5
  0
CIRCLE
  5
27A
330
1F
100
AcDbEntity
  8
0
  6
Continuous
 62
     7
370
    15
100
AcDbCircle
 10
343.6284628299
 20
114.0153610299
 30
0.0
 40
1.5
  0
LINE
  5
27B
330
1F
100
AcDbEntity
  8
0
  6
Continuous
 62
     7
370
    15
100
AcDbLine
 10
273.6284598496
 20
99.0153610299
 30
0.0
 11
273.6284598496
 21
129.0153603593
 31
0.0
  0
LINE
  5
27C
330
1F
100
AcDbEntity
  8
0
  6
Continuous
 62
     7
370
    15
100
AcDbLine
 10
348.6284628299
 20
129.0153603593
 30
0.0
 11
273.6284598496
 21
129.0153603593
 31
0.0
  0
LINE
  5
27D
330
1F
100
AcDbEntity
  8
0
  6
Continuous
 62
     7
370
    15
100
AcDbLine
 10
348.6284628299
 20
99.0153610299
 30
0.0
 11
348.6284628299
 21
129.0153603593
 31
0.0
  0
LINE
  5
27E
330
1F
100
AcDbEntity
  8
0
  6
Continuous
 62
     7
370
    15
100
AcDbLine
 10
273.6284598496
 20
99.0153610299
 30
0.0
 11
348.6284628299
 21
99.0153610299
 31
0.0
  0
CIRCLE
  5
27F
330
1F
100
AcDbEntity
  8
0
  6
Continuous
 62
     7
370
    15
100
AcDbCircle
 10
335.1284628299
 20
114.0153610299
 30
0.0
 40
1.5
  0
LINE
  5
280
330
1F
100
AcDbEntity
  8
0
  6
Continuous
 62
     7
370
    15
100
AcDbLine
 10
315.7284609762
 20
105.015361082
 30
0.0
 11
315.7284609762
 21
108.0153606425
 31
0.0
  0
LINE
  5
281
330
1F
100
AcDbEntity
  8
0
  6
Continuous
 62
     7
370
    15
100
AcDbLine
 10
315.7284609762
 20
108.0153606425
 30
0.0
 11
310.7284620192
 21
108.0153606425
 31
0.0
  0
LINE
  5
282
330
1F
100
AcDbEntity
  8
0
  6
Continuous
 62
     7
370
    15
100
AcDbLine
 10
310.7284620192
 20
108.0153606425
 30
0.0
 11
310.7284620192
 21
105.015361082
 31
0.0
  0
LINE
  5
283
330
1F
100
AcDbEntity
  8
0
  6
Continuous
 62
     7
370
    15
100
AcDbLine
 10
310.7284620192
 20
105.015361082
 30
0.0
 11
315.7284609762
 21
105.015361082
 31
0.0
  0
LINE
  5
284
330
1F
100
AcDbEntity
  8
0
  6
Continuous
 62
     7
370
    15
100
AcDbLine
 10
288.5284624782
 20
120.0153607468
 30
0.0
 11
288.5284624782
 21
123.0153612385
 31
0.0
  0
LINE
  5
285
330
1F
100
AcDbEntity
  8
0
  6
Continuous
 62
     7
370
    15
100
AcDbLine
 10
288.5284624782
 20
123.0153612385
 30
0.0
 11
283.5284635213
 21
123.0153612385
 31
0.0
  0
LINE
  5
286
330
1F
100
AcDbEntity
  8
0
  6
Continuous
 62
     7
370
    15
100
AcDbLine
 10
283.5284635213
 20
123.0153612385
 30
0.0
 11
283.5284635213
 21
120.0153607468
 31
0.0
  0
LINE
  5
287
330
1F
100
AcDbEntity
  8
0
  6
Continuous
 62
     7
370
    15
100
AcDbLine
 10
283.5284635213
 20
120.0153607468
 30
0.0
 11
288.5284624782
 21
120.0153607468
 31
0.0
  0
LINE
  5
288
330
1F
100
AcDbEntity
  8
0
  6
Continuous
 62
     7
370
    15
100
AcDbLine
 10
288.5284624782
 20
110.0153609703
 30
0.0
 11
288.5284624782
 21
113.015361462
 31
0.0
  0
LINE
  5
289
330
1F
100
AcDbEntity
  8
0
  6
Continuous
 62
     7
370
    15
100
AcDbLine
 10
288.5284624782
 20
113.015361462
 30
0.0
 11
283.5284635213
 21
113.015361462
 31
0.0
  0
LINE
  5
28A
330
1F
100
AcDbEntity
  8
0
  6
Continuous
 62
     7
370
    15
100
AcDbLine
 10
283.5284635213
 20
113.015361462
 30
0.0
 11
283.5284635213
 21
110.0153609703
 31
0.0
  0
LINE
  5
28B
330
1F
100
AcDbEntity
  8
0
  6
Continuous
 62
     7
370
    15
100
AcDbLine
 10
283.5284635213
 20
110.0153609703
 30
0.0
 11
288.5284624782
 21
110.0153609703
 31
0.0
  0
CIRCLE
  5
28C
330
1F
100
AcDbEntity
  8
0
  6
Continuous
 62
     7
370
    15
100
AcDbCircle
 10
277.5284628299
 20
114.0153610299
 30
0.0
 40
1.050000000000011
  0
LINE
  5
28D
330
1F
100
AcDbEntity
  8
0
  6
Continuous
 62
     7
370
    15
100
AcDbLine
 10
242.8694255243
 20
65.8129193224
 30
0.0
 11
242.8694255243
 21
73.6332228742
 31
0.0
  0
LINE
  5
28E
330
1F
100
AcDbEntity
  8
0
  6
Continuous
 62
     7
370
    15
100
AcDbLine
 10
211.8694260309
 20
65.8129193224
 30
0.0
 11
242.8694255243
 21
65.8129193224
 31
0.0
  0
LINE
  5
28F
330
1F
100
AcDbEntity
  8
0
  6
Continuous
 62
     7
370
    15
100
AcDbLine
 10
256.8694278191
 20
65.8129193224
 30
0.0
 11
266.8694257329
 21
65.8129193224
 31
0.0
  0
LINE
  5
290
330
1F
100
AcDbEntity
  8
0
  6
Continuous
 62
     7
370
    15
100
AcDbLine
 10
256.8694278191
 20
73.6332228742
 30
0.0
 11
256.8694278191
 21
65.8129193224
 31
0.0
  0
LINE
  5
291
330
1F
100
AcDbEntity
  8
0
  6
Continuous
 62
     7
370
    15
100
AcDbLine
 10
242.8694255243
 20
73.6332228742
 30
0.0
 11
256.8694278191
 21
73.6332228742
 31
0.0
  0
CIRCLE
  5
292
330
1F
100
AcDbEntity
  8
0
  6
Continuous
 62
     7
370
    15
100
AcDbCircle
 10
215.8694260309
 20
73.3129193224
 30
0.0
 40
1.5
  0
CIRCLE
  5
293
330
1F
100
AcDbEntity
  8
0
  6
Continuous
 62
     7
370
    15
100
AcDbCircle
 10
224.3694260309
 20
73.3129193224
 30
0.0
 40
1.5
  0
CIRCLE
  5
294
330
1F
100
AcDbEntity
  8
0
  6
Continuous
 62
     7
370
    15
100
AcDbCircle
 10
232.8694260309
 20
73.3129193224
 30
0.0
 40
1.5
  0
LINE
  5
295
330
1F
100
AcDbEntity
  8
0
  6
Continuous
 62
     7
370
    15
100
AcDbLine
 10
211.8694260309
 20
65.8129193224
 30
0.0
 11
211.8694260309
 21
80.8129189871
 31
0.0
  0
LINE
  5
296
330
1F
100
AcDbEntity
  8
0
  6
Continuous
 62
     7
370
    15
100
AcDbLine
 10
211.8694260309
 20
80.8129189871
 30
0.0
 11
266.8694257329
 21
80.8129189871
 31
0.0
  0
LINE
  5
297
330
1F
100
AcDbEntity
  8
0
  6
Continuous
 62
     7
370
    15
100
AcDbLine
 10
266.8694257329
 20
65.8129193224
 30
0.0
 11
266.8694257329
 21
80.8129189871
 31
0.0
  0
LINE
  5
298
330
1F
100
AcDbEntity
  8
0
  6
Continuous
 62
     7
370
    15
100
AcDbLine
 10
543.9247808453
 20
123.0422010872
 30
0.0
 11
540.9247803535
 21
123.0422010872
 31
0.0
  0
LINE
  5
299
330
1F
100
AcDbEntity
  8
0
  6
Continuous
 62
     7
370
    15
100
AcDbLine
 10
540.9247803535
 20
123.0422010872
 30
0.0
 11
540.9247803535
 21
118.0422002676
 31
0.0
  0
LINE
  5
29A
330
1F
100
AcDbEntity
  8
0
  6
Continuous
 62
     7
370
    15
100
AcDbLine
 10
540.9247803535
 20
118.0422002676
 30
0.0
 11
538.9247804914
 21
118.0422002676
 31
0.0
  0
LINE
  5
29B
330
1F
100
AcDbEntity
  8
0
  6
Continuous
 62
     7
370
    15
100
AcDbLine
 10
538.9247804914
 20
118.0422002676
 30
0.0
 11
538.9247804914
 21
113.0422008451
 31
0.0
  0
LINE
  5
29C
330
1F
100
AcDbEntity
  8
0
  6
Continuous
 62
     7
370
    15
100
AcDbLine
 10
538.9247804914
 20
113.0422008451
 30
0.0
 11
545.9247802418
 21
113.0422008451
 31
0.0
  0
LINE
  5
29D
330
1F
100
AcDbEntity
  8
0
  6
Continuous
 62
     7
370
    15
100
AcDbLine
 10
545.9247802418
 20
113.0422008451
 30
0.0
 11
545.9247802418
 21
118.0422002676
 31
0.0
  0
LINE
  5
29E
330
1F
100
AcDbEntity
  8
0
  6
Continuous
 62
     7
370
    15
100
AcDbLine
 10
543.9247808453
 20
118.0422002676
 30
0.0
 11
543.9247808453
 21
123.0422010872
 31
0.0
  0
LINE
  5
29F
330
1F
100
AcDbEntity
  8
0
  6
Continuous
 62
     7
370
    15
100
AcDbLine
 10
540.4247802716
 20
99.0422008786
 30
0.0
 11
544.4247809272
 21
99.0422008786
 31
0.0
  0
LINE
  5
2A0
330
1F
100
AcDbEntity
  8
0
  6
Continuous
 62
     7
370
    15
100
AcDbLine
 10
540.4247802716
 20
109.0422006551
 30
0.0
 11
540.4247802716
 21
99.0422008786
 31
0.0
  0
LINE
  5
2A1
330
1F
100
AcDbEntity
  8
0
  6
Continuous
 62
     7
370
    15
100
AcDbLine
 10
535.9247804653
 20
109.0422006551
 30
0.0
 11
540.4247802716
 21
109.0422006551
 31
0.0
  0
LINE
  5
2A2
330
1F
100
AcDbEntity
  8
0
  6
Continuous
 62
     7
370
    15
100
AcDbLine
 10
535.9247804653
 20
109.0422006551
 30
0.0
 11
535.9247804653
 21
116.5422004874
 31
0.0
  0
LINE
  5
2A3
330
1F
100
AcDbEntity
  8
0
  6
Continuous
 62
     7
370
    15
100
AcDbLine
 10
535.9247804653
 20
116.5422004874
 30
0.0
 11
530.924780577
 21
116.5422004874
 31
0.0
  0
LINE
  5
2A4
330
1F
100
AcDbEntity
  8
0
  6
Continuous
 62
     7
370
    15
100
AcDbLine
 10
530.924780577
 20
121.5422008413
 30
0.0
 11
530.924780577
 21
116.5422004874
 31
0.0
  0
LINE
  5
2A5
330
1F
100
AcDbEntity
  8
0
  6
Continuous
 62
     7
370
    15
100
AcDbLine
 10
535.9247804653
 20
121.5422008413
 30
0.0
 11
530.924780577
 21
121.5422008413
 31
0.0
  0
LINE
  5
2A6
330
1F
100
AcDbEntity
  8
0
  6
Continuous
 62
     7
370
    15
100
AcDbLine
 10
535.9247804653
 20
121.5422008413
 30
0.0
 11
535.9247804653
 21
129.042200208
 31
0.0
  0
LINE
  5
2A7
330
1F
100
AcDbEntity
  8
0
  6
Continuous
 62
     7
370
    15
100
AcDbLine
 10
535.9247804653
 20
129.042200208
 30
0.0
 11
548.9247807335
 21
129.042200208
 31
0.0
  0
LINE
  5
2A8
330
1F
100
AcDbEntity
  8
0
  6
Continuous
 62
     7
370
    15
100
AcDbLine
 10
548.9247807335
 20
121.5422008413
 30
0.0
 11
548.9247807335
 21
129.042200208
 31
0.0
  0
LINE
  5
2A9
330
1F
100
AcDbEntity
  8
0
  6
Continuous
 62
     7
370
    15
100
AcDbLine
 10
548.9247807335
 20
121.5422008413
 30
0.0
 11
553.9247796904
 21
121.5422008413
 31
0.0
  0
LINE
  5
2AA
330
1F
100
AcDbEntity
  8
0
  6
Continuous
 62
     7
370
    15
100
AcDbLine
 10
553.9247796904
 20
116.5422004874
 30
0.0
 11
553.9247796904
 21
121.5422008413
 31
0.0
  0
LINE
  5
2AB
330
1F
100
AcDbEntity
  8
0
  6
Continuous
 62
     7
370
    15
100
AcDbLine
 10
548.9247807335
 20
116.5422004874
 30
0.0
 11
553.9247796904
 21
116.5422004874
 31
0.0
  0
LINE
  5
2AC
330
1F
100
AcDbEntity
  8
0
  6
Continuous
 62
     7
370
    15
100
AcDbLine
 10
548.9247807335
 20
109.0422006551
 30
0.0
 11
548.9247807335
 21
116.5422004874
 31
0.0
  0
LINE
  5
2AD
330
1F
100
AcDbEntity
  8
0
  6
Continuous
 62
     7
370
    15
100
AcDbLine
 10
544.4247809272
 20
109.0422006551
 30
0.0
 11
548.9247807335
 21
109.0422006551
 31
0.0
  0
LINE
  5
2AE
330
1F
100
AcDbEntity
  8
0
  6
Continuous
 62
     7
370
    15
100
AcDbLine
 10
544.4247809272
 20
109.0422006551
 30
0.0
 11
544.4247809272
 21
99.0422008786
 31
0.0
  0
LINE
  5
2AF
330
1F
100
AcDbEntity
  8
0
  6
Continuous
 62
     7
370
    15
100
AcDbLine
 10
545.9247802418
 20
118.0422002676
 30
0.0
 11
543.9247808453
 21
118.0422002676
 31
0.0
  0
LINE
  5
2B0
330
1F
100
AcDbEntity
  8
0
  6
Continuous
 62
     7
370
    15
100
AcDbLine
 10
567.6074518767
 20
116.3021898717
 30
0.0
 11
564.607451385
 21
116.3021898717
 31
0.0
  0
LINE
  5
2B1
330
1F
100
AcDbEntity
  8
0
  6
Continuous
 62
     7
370
    15
100
AcDbLine
 10
564.607451385
 20
116.3021898717
 30
0.0
 11
564.607451385
 21
111.3021890521
 31
0.0
  0
LINE
  5
2B2
330
1F
100
AcDbEntity
  8
0
  6
Continuous
 62
     7
370
    15
100
AcDbLine
 10
564.607451385
 20
111.3021890521
 30
0.0
 11
562.6074515228
 21
111.3021890521
 31
0.0
  0
LINE
  5
2B3
330
1F
100
AcDbEntity
  8
0
  6
Continuous
 62
     7
370
    15
100
AcDbLine
 10
562.6074515228
 20
111.3021890521
 30
0.0
 11
562.6074515228
 21
106.3021896295
 31
0.0
  0
LINE
  5
2B4
330
1F
100
AcDbEntity
  8
0
  6
Continuous
 62
     7
370
    15
100
AcDbLine
 10
562.6074515228
 20
106.3021896295
 30
0.0
 11
569.6074512732
 21
106.3021896295
 31
0.0
  0
LINE
  5
2B5
330
1F
100
AcDbEntity
  8
0
  6
Continuous
 62
     7
370
    15
100
AcDbLine
 10
569.6074512732
 20
106.3021896295
 30
0.0
 11
569.6074512732
 21
111.3021890521
 31
0.0
  0
LINE
  5
2B6
330
1F
100
AcDbEntity
  8
0
  6
Continuous
 62
     7
370
    15
100
AcDbLine
 10
567.6074518767
 20
111.3021890521
 30
0.0
 11
567.6074518767
 21
116.3021898717
 31
0.0
  0
LINE
  5
2B7
330
1F
100
AcDbEntity
  8
0
  6
Continuous
 62
     7
370
    15
100
AcDbLine
 10
564.107451303
 20
92.3021896631
 30
0.0
 11
568.1074519587
 21
92.3021896631
 31
0.0
  0
LINE
  5
2B8
330
1F
100
AcDbEntity
  8
0
  6
Continuous
 62
     7
370
    15
100
AcDbLine
 10
564.107451303
 20
102.3021894396
 30
0.0
 11
564.107451303
 21
92.3021896631
 31
0.0
  0
LINE
  5
2B9
330
1F
100
AcDbEntity
  8
0
  6
Continuous
 62
     7
370
    15
100
AcDbLine
 10
559.6074514967
 20
102.3021894396
 30
0.0
 11
564.107451303
 21
102.3021894396
 31
0.0
  0
LINE
  5
2BA
330
1F
100
AcDbEntity
  8
0
  6
Continuous
 62
     7
370
    15
100
AcDbLine
 10
559.6074514967
 20
102.3021894396
 30
0.0
 11
559.6074514967
 21
109.8021892719
 31
0.0
  0
LINE
  5
2BB
330
1F
100
AcDbEntity
  8
0
  6
Continuous
 62
     7
370
    15
100
AcDbLine
 10
559.6074514967
 20
109.8021892719
 30
0.0
 11
554.6074516085
 21
109.8021892719
 31
0.0
  0
LINE
  5
2BC
330
1F
100
AcDbEntity
  8
0
  6
Continuous
 62
     7
370
    15
100
AcDbLine
 10
554.6074516085
 20
114.8021896258
 30
0.0
 11
554.6074516085
 21
109.8021892719
 31
0.0
  0
LINE
  5
2BD
330
1F
100
AcDbEntity
  8
0
  6
Continuous
 62
     7
370
    15
100
AcDbLine
 10
559.6074514967
 20
114.8021896258
 30
0.0
 11
554.6074516085
 21
114.8021896258
 31
0.0
  0
LINE
  5
2BE
330
1F
100
AcDbEntity
  8
0
  6
Continuous
 62
     7
370
    15
100
AcDbLine
 10
559.6074514967
 20
114.8021896258
 30
0.0
 11
559.6074514967
 21
122.3021889925
 31
0.0
  0
LINE
  5
2BF
330
1F
100
AcDbEntity
  8
0
  6
Continuous
 62
     7
370
    15
100
AcDbLine
 10
559.6074514967
 20
122.3021889925
 30
0.0
 11
572.607451765
 21
122.3021889925
 31
0.0
  0
LINE
  5
2C0
330
1F
100
AcDbEntity
  8
0
  6
Continuous
 62
     7
370
    15
100
AcDbLine
 10
572.607451765
 20
114.8021896258
 30
0.0
 11
572.607451765
 21
122.3021889925
 31
0.0
  0
LINE
  5
2C1
330
1F
100
AcDbEntity
  8
0
  6
Continuous
 62
     7
370
    15
100
AcDbLine
 10
572.607451765
 20
114.8021896258
 30
0.0
 11
577.6074507219
 21
114.8021896258
 31
0.0
  0
LINE
  5
2C2
330
1F
100
AcDbEntity
  8
0
  6
Continuous
 62
     7
370
    15
100
AcDbLine
 10
577.6074507219
 20
109.8021892719
 30
0.0
 11
577.6074507219
 21
114.8021896258
 31
0.0
  0
LINE
  5
2C3
330
1F
100
AcDbEntity
  8
0
  6
Continuous
 62
     7
370
    15
100
AcDbLine
 10
572.607451765
 20
109.8021892719
 30
0.0
 11
577.6074507219
 21
109.8021892719
 31
0.0
  0
LINE
  5
2C4
330
1F
100
AcDbEntity
  8
0
  6
Continuous
 62
     7
370
    15
100
AcDbLine
 10
572.607451765
 20
102.3021894396
 30
0.0
 11
572.607451765
 21
109.8021892719
 31
0.0
  0
LINE
  5
2C5
330
1F
100
AcDbEntity
  8
0
  6
Continuous
 62
     7
370
    15
100
AcDbLine
 10
568.1074519587
 20
102.3021894396
 30
0.0
 11
572.607451765
 21
102.3021894396
 31
0.0
  0
LINE
  5
2C6
330
1F
100
AcDbEntity
  8
0
  6
Continuous
 62
     7
370
    15
100
AcDbLine
 10
568.1074519587
 20
102.3021894396
 30
0.0
 11
568.1074519587
 21
92.3021896631
 31
0.0
  0
LINE
  5
2C7
330
1F
100
AcDbEntity
  8
0
  6
Continuous
 62
     7
370
    15
100
AcDbLine
 10
569.6074512732
 20
111.3021890521
 30
0.0
 11
567.6074518767
 21
111.3021890521
 31
0.0
  0
ENDSEC
  0
SECTION
  2
OBJECTS
  0
DICTIONARY
  5
C
330
0
100
AcDbDictionary
281
     1
  3
ACAD_GROUP
350
D
  3
ACAD_LAYOUT
350
1A
  3
ACAD_MLINESTYLE
350
17
  3
ACAD_PLOTSETTINGS
350
19
  3
ACAD_PLOTSTYLENAME
350
E
  3
ACAD_SCALELIST
350
47
  0
DICTIONARY
  5
D
102
{ACAD_REACTORS
330
C
102
}
330
C
100
AcDbDictionary
281
     1
  0
DICTIONARY
  5
1A
102
{ACAD_REACTORS
330
C
102
}
330
C
100
AcDbDictionary
281
     1
  3
Layout1
350
1E
  3
Layout2
350
26
  3
Model
350
22
  0
DICTIONARY
  5
17
102
{ACAD_REACTORS
330
C
102
}
330
C
100
AcDbDictionary
281
     1
  3
Standard
350
18
  0
DICTIONARY
  5
19
102
{ACAD_REACTORS
330
C
102
}
330
C
100
AcDbDictionary
281
     1
  0
ACDBDICTIONARYWDFLT
  5
E
102
{ACAD_REACTORS
330
C
102
}
330
C
100
AcDbDictionary
281
     1
  3
Normal
350
F
100
AcDbDictionaryWithDefault
340
F
  0
DICTIONARY
  5
47
102
{ACAD_REACTORS
330
C
102
}
330
C
100
AcDbDictionary
281
     1
  3
A0
350
48
  3
A1
350
49
  3
A2
350
4A
  3
A3
350
4B
  3
A4
350
4C
  3
A5
350
4D
  3
A6
350
4E
  3
A7
350
4F
  3
A8
350
50
  3
A9
350
51
  3
B0
350
52
  3
B1
350
53
  3
B2
350
54
  3
B3
350
55
  3
B4
350
56
  3
B5
350
57
  3
B6
350
58
  3
B7
350
59
  3
B8
350
5A
  3
B9
350
5B
  3
C0
350
5C
  3
C1
350
5D
  3
C2
350
5E
  3
C3
350
5F
  3
C4
350
60
  3
C5
350
61
  3
C6
350
62
  3
C7
350
63
  3
C8
350
64
  3
C9
350
65
  3
D0
350
66
  3
D1
350
67
  3
D2
350
68
  0
LAYOUT
  5
1E
102
{ACAD_REACTORS
330
1A
102
}
330
1A
100
AcDbPlotSettings
  1

  2
none_device
  4

  6

 40
0.0
 41
0.0
 42
0.0
 43
0.0
 44
0.0
 45
0.0
 46
0.0
 47
0.0
 48
0.0
 49
0.0
140
0.0
141
0.0
142
1.0
143
1.0
 70
   688
 72
     1
 73
     0
 74
     5
  7

 75
    16
147
1.0
148
0.0
149
0.0
100
AcDbLayout
  1
Layout1
 70
     1
 71
     1
 10
0.0
 20
0.0
 11
420.0
 21
297.0
 12
0.0
 22
0.0
 32
0.0
 14
1.0000000000E+20
 24
1.0000000000E+20
 34
1.0000000000E+20
 15
-1.0000000000E+20
 25
-1.0000000000E+20
 35
-1.0000000000E+20
146
0.0
 13
0.0
 23
0.0
 33
0.0
 16
1.0
 26
0.0
 36
0.0
 17
0.0
 27
1.0
 37
0.0
 76
     0
330
1B
  0
LAYOUT
  5
26
102
{ACAD_REACTORS
330
1A
102
}
330
1A
100
AcDbPlotSettings
  1

  2
none_device
  4

  6

 40
0.0
 41
0.0
 42
0.0
 43
0.0
 44
0.0
 45
0.0
 46
0.0
 47
0.0
 48
0.0
 49
0.0
140
0.0
141
0.0
142
1.0
143
1.0
 70
   688
 72
     1
 73
     0
 74
     5
  7

 75
    16
147
1.0
148
0.0
149
0.0
100
AcDbLayout
  1
Layout2
 70
     1
 71
     2
 10
0.0
 20
0.0
 11
0.0
 21
0.0
 12
0.0
 22
0.0
 32
0.0
 14
0.0
 24
0.0
 34
0.0
 15
0.0
 25
0.0
 35
0.0
146
0.0
 13
0.0
 23
0.0
 33
0.0
 16
1.0
 26
0.0
 36
0.0
 17
0.0
 27
1.0
 37
0.0
 76
     0
330
23
  0
LAYOUT
  5
22
102
{ACAD_REACTORS
330
1A
102
}
330
1A
100
AcDbPlotSettings
  1

  2
none_device
  4
Letter_(8.50_x_11.00_Inches)
  6

 40
6.35
 41
6.35
 42
6.35000508
 43
6.35000508
 44
215.9
 45
279.4
 46
0.0
 47
0.0
 48
0.0
 49
0.0
140
0.0
141
0.0
142
1.0
143
1.0
 70
  1712
 72
     1
 73
     0
 74
     0
  7

 75
     0
147
1.0
148
0.0
149
0.0
100
AcDbLayout
  1
Model
 70
     1
 71
     0
 10
0.0
 20
0.0
 11
600.0
 21
400.0
 12
0.0
 22
0.0
 32
0.0
 14
0.0
 24
0.0
 34
0.0
 15
600.0
 25
400.0
 35
0.0
146
0.0
 13
0.0
 23
0.0
 33
0.0
 16
1.0
 26
0.0
 36
0.0
 17
0.0
 27
1.0
 37
0.0
 76
     0
330
1F
331
29
  0
MLINESTYLE
  5
18
102
{ACAD_REACTORS
330
17
102
}
330
17
100
AcDbMlineStyle
  2
Standard
 70
     0
  3

 62
   256
 51
90.0
 52
90.0
 71
     2
 49
0.5
 62
   256
  6
BYLAYER
 49
-0.5
 62
   256
  6
BYLAYER
  0
ACDBPLACEHOLDER
  5
F
102
{ACAD_REACTORS
330
E
102
}
330
E
  0
SCALE
  5
48
102
{ACAD_REACTORS
330
47
102
}
330
47
100
AcDbScale
 70
     0
300
1:1
140
1.0
141
1.0
290
     1
  0
SCALE
  5
49
102
{ACAD_REACTORS
330
47
102
}
330
47
100
AcDbScale
 70
     0
300
1:2
140
1.0
141
2.0
290
     0
  0
SCALE
  5
4A
102
{ACAD_REACTORS
330
47
102
}
330
47
100
AcDbScale
 70
     0
300
1:4
140
1.0
141
4.0
290
     0
  0
SCALE
  5
4B
102
{ACAD_REACTORS
330
47
102
}
330
47
100
AcDbScale
 70
     0
300
1:5
140
1.0
141
5.0
290
     0
  0
SCALE
  5
4C
102
{ACAD_REACTORS
330
47
102
}
330
47
100
AcDbScale
 70
     0
300
1:8
140
1.0
141
8.0
290
     0
  0
SCALE
  5
4D
102
{ACAD_REACTORS
330
47
102
}
330
47
100
AcDbScale
 70
     0
300
1:10
140
1.0
141
10.0
290
     0
  0
SCALE
  5
4E
102
{ACAD_REACTORS
330
47
102
}
330
47
100
AcDbScale
 70
     0
300
1:16
140
1.0
141
16.0
290
     0
  0
SCALE
  5
4F
102
{ACAD_REACTORS
330
47
102
}
330
47
100
AcDbScale
 70
     0
300
1:20
140
1.0
141
20.0
290
     0
  0
SCALE
  5
50
102
{ACAD_REACTORS
330
47
102
}
330
47
100
AcDbScale
 70
     0
300
1:30
140
1.0
141
30.0
290
     0
  0
SCALE
  5
51
102
{ACAD_REACTORS
330
47
102
}
330
47
100
AcDbScale
 70
     0
300
1:40
140
1.0
141
40.0
290
     0
  0
SCALE
  5
52
102
{ACAD_REACTORS
330
47
102
}
330
47
100
AcDbScale
 70
     0
300
1:50
140
1.0
141
50.0
290
     0
  0
SCALE
  5
53
102
{ACAD_REACTORS
330
47
102
}
330
47
100
AcDbScale
 70
     0
300
1:100
140
1.0
141
100.0
290
     0
  0
SCALE
  5
54
102
{ACAD_REACTORS
330
47
102
}
330
47
100
AcDbScale
 70
     0
300
2:1
140
2.0
141
1.0
290
     0
  0
SCALE
  5
55
102
{ACAD_REACTORS
330
47
102
}
330
47
100
AcDbScale
 70
     0
300
4:1
140
4.0
141
1.0
290
     0
  0
SCALE
  5
56
102
{ACAD_REACTORS
330
47
102
}
330
47
100
AcDbScale
 70
     0
300
8:1
140
8.0
141
1.0
290
     0
  0
SCALE
  5
57
102
{ACAD_REACTORS
330
47
102
}
330
47
100
AcDbScale
 70
     0
300
10:1
140
10.0
141
1.0
290
     0
  0
SCALE
  5
58
102
{ACAD_REACTORS
330
47
102
}
330
47
100
AcDbScale
 70
     0
300
100:1
140
100.0
141
1.0
290
     0
  0
SCALE
  5
59
102
{ACAD_REACTORS
330
47
102
}
330
47
100
AcDbScale
 70
     0
300
1/128" = 1'-0"
140
0.0078125
141
12.0
290
     0
  0
SCALE
  5
5A
102
{ACAD_REACTORS
330
47
102
}
330
47
100
AcDbScale
 70
     0
300
1/64" = 1'-0"
140
0.015625
141
12.0
290
     0
  0
SCALE
  5
5B
102
{ACAD_REACTORS
330
47
102
}
330
47
100
AcDbScale
 70
     0
300
1/32" = 1'-0"
140
0.03125
141
12.0
290
     0
  0
SCALE
  5
5C
102
{ACAD_REACTORS
330
47
102
}
330
47
100
AcDbScale
 70
     0
300
1/16" = 1'-0"
140
0.0625
141
12.0
290
     0
  0
SCALE
  5
5D
102
{ACAD_REACTORS
330
47
102
}
330
47
100
AcDbScale
 70
     0
300
3/32" = 1'-0"
140
0.09375
141
12.0
290
     0
  0
SCALE
  5
5E
102
{ACAD_REACTORS
330
47
102
}
330
47
100
AcDbScale
 70
     0
300
1/8" = 1'-0"
140
0.125
141
12.0
290
     0
  0
SCALE
  5
5F
102
{ACAD_REACTORS
330
47
102
}
330
47
100
AcDbScale
 70
     0
300
3/16" = 1'-0"
140
0.1875
141
12.0
290
     0
  0
SCALE
  5
60
102
{ACAD_REACTORS
330
47
102
}
330
47
100
AcDbScale
 70
     0
300
1/4" = 1'-0"
140
0.25
141
12.0
290
     0
  0
SCALE
  5
61
102
{ACAD_REACTORS
330
47
102
}
330
47
100
AcDbScale
 70
     0
300
3/8" = 1'-0"
140
0.375
141
12.0
290
     0
  0
SCALE
  5
62
102
{ACAD_REACTORS
330
47
102
}
330
47
100
AcDbScale
 70
     0
300
1/2" = 1'-0"
140
0.5
141
12.0
290
     0
  0
SCALE
  5
63
102
{ACAD_REACTORS
330
47
102
}
330
47
100
AcDbScale
 70
     0
300
3/4" = 1'-0"
140
0.75
141
12.0
290
     0
  0
SCALE
  5
64
102
{ACAD_REACTORS
330
47
102
}
330
47
100
AcDbScale
 70
     0
300
1" = 1'-0"
140
1.0
141
12.0
290
     0
  0
SCALE
  5
65
102
{ACAD_REACTORS
330
47
102
}
330
47
100
AcDbScale
 70
     0
300
1-1/2" = 1'-0"
140
1.5
141
12.0
290
     0
  0
SCALE
  5
66
102
{ACAD_REACTORS
330
47
102
}
330
47
100
AcDbScale
 70
     0
300
3" = 1'-0"
140
3.0
141
12.0
290
     0
  0
SCALE
  5
67
102
{ACAD_REACTORS
330
47
102
}
330
47
100
AcDbScale
 70
     0
300
6" = 1'-0"
140
6.0
141
12.0
290
     0
  0
SCALE
  5
68
102
{ACAD_REACTORS
330
47
102
}
330
47
100
AcDbScale
 70
     0
300
1'-0" = 1'-0"
140
12.0
141
12.0
290
     0
  0
ENDSEC
  0
EOF
